<svg xmlns="http://www.w3.org/2000/svg" xmlns:xlink="http://www.w3.org/1999/xlink" width="950" height="561.196" viewBox="0 0 950 561.196"><defs><style>.a,.c{fill:tomato;}.a{opacity:0.2;}.b{fill:#f5f5f5;}.d{fill:none;stroke:#535461;stroke-miterlimit:10;stroke-width:2px;}.e{fill:#ffc107;}.f{fill:url(#a);}.g{fill:#535461;}.h{fill:#fff;}.i{fill:url(#c);}.j{fill:url(#d);}.k{fill:#f7c4a7;}.l{opacity:0.05;}.m{fill:#575988;}.n{opacity:0.1;}.o{fill:#f3b5b7;}.p{fill:#dddbe2;}.q{fill:#fc6681;}</style><linearGradient id="a" x1="0.5" y1="1" x2="0.5" gradientUnits="objectBoundingBox"><stop offset="0" stop-color="gray" stop-opacity="0.251"/><stop offset="0.54" stop-color="gray" stop-opacity="0.122"/><stop offset="1" stop-color="gray" stop-opacity="0.102"/></linearGradient><linearGradient id="c" x1="0.5" y1="1" x2="0.5" y2="0" xlink:href="#a"/><linearGradient id="d" x1="0.5" y1="1" x2="0.5" y2="0" xlink:href="#a"/></defs><g transform="translate(0.001 0)"><path class="a" d="M220.832,144.064c-7.391-.211-14.965,0-21.9,2.127-18.862,5.8-27.8,24.759-24.9,41.145S188.9,218,201.309,231.05,227.159,257,233.963,272.6c3.393,7.785,4.979,16.506,1.531,24.282-5.319,11.985-21.357,18.679-36.753,20.073s-30.857-1.32-46.308-2.228c-6.483-.376-13.15-.422-19.257,1.33-6.7,1.907-12.288,5.8-17.423,9.867C95.718,341.858,79.68,363.6,82.275,386.442c2.934,25.887,29.105,46.345,57.77,57.321,9.491,3.668,19.532,6.584,27.886,11.774,22.008,13.691,26.95,39.366,24.759,62.025s-9.656,45.345-5.5,67.8c4.888,26.125,26.519,49.728,55.7,60.75,26,9.821,58.531,9.17,81.612-4.686,11.251-6.767,19.761-16.167,27.161-25.887a208.833,208.833,0,0,0,27.005-46.766c3.219-7.785,6.245-16.157,13.755-21.568,4.585-3.329,10.527-5.19,16.4-6.639,17.716-4.365,36.377-5.557,54.258-9.445s35.872-11.16,45.593-24.089c13.755-18.34,7.336-41.833,7.4-63.4.11-49.206,35.863-93.248,49.059-141.216,4.31-15.671,5.915-33.012-3.714-47-6.538-9.491-17.57-16.341-29.16-21.632-25.5-11.637-54.487-16.818-83-21.861-39.623-7.006-87.737-7.914-118.447-30.582C301.343,159.589,261.023,144.064,220.832,144.064Z" transform="translate(-82 -144)"/><ellipse class="b" cx="426.399" cy="114.183" rx="426.399" ry="114.183" transform="translate(97.201 332.83)"/><path class="c" d="M1035.006,330.86s-32.856,32.856-14.305,81.612-31.8,129.836-31.8,129.836.541-.083,1.541-.257c67.481-11.921,101.016-89.094,63.493-146.434C1039.985,374.307,1028.532,349.328,1035.006,330.86Z" transform="translate(-157.284 -159.512)"/><path class="d" d="M1035.006,330.86s-18.551,40.274,0,73.13,3.182,125.068-46.106,138.318" transform="translate(-157.284 -159.512)"/><path class="e" d="M1092.77,475.753s-37.5-5.97-40.907,27.629-72.094,38.257-72.094,38.257l1.284.853c56.707,37.221,110.955,23.713,102.7-25.676C1080.758,498.4,1081.005,479.943,1092.77,475.753Z" transform="translate(-156.526 -171.506)"/><path class="c" d="M1092.77,475.753s-37.5-5.97-40.907,27.629-72.094,38.257-72.094,38.257l1.284.853c56.707,37.221,110.955,23.713,102.7-25.676C1080.758,498.4,1081.005,479.943,1092.77,475.753Z" transform="translate(-156.526 -171.506)"/><path class="d" d="M1092.77,475.79s-29.105,6.419-26.712,32.846-43.218,58.183-86.288,33.012" transform="translate(-156.526 -171.543)"/><path class="f" d="M952.558,537.054H893.651a19.643,19.643,0,0,0,2.054-8.776V260A19.724,19.724,0,0,0,875.98,240.28H419.926A19.724,19.724,0,0,0,400.192,260V528.287a19.641,19.641,0,0,0,2.054,8.776H341.258a5.218,5.218,0,0,0-5.218,5.218v4.209a29.178,29.178,0,0,0,29.178,29.151H928.6a29.179,29.179,0,0,0,29.179-29.179v-4.209a5.218,5.218,0,0,0-5.218-5.2ZM589.532,553.743l-5.025-5.731h125.37l-5.594,5.74Z" transform="translate(-103.089 -151.992)"/><rect class="g" width="484.279" height="300.763" rx="23.26" transform="translate(302.707 92.084)"/><rect class="h" width="462.868" height="245.707" transform="translate(312.894 135.925)"/><circle class="h" cx="4.081" cy="4.081" r="4.081" transform="translate(540.252 110.433)"/><path class="g" d="M719.53,560.73l-15.91,16.313H591.473L577.1,560.73H348.828a5.1,5.1,0,0,0-5.1,5.1v4.108a28.518,28.518,0,0,0,28.518,28.518H922.853a28.518,28.518,0,0,0,28.518-28.518v-4.108a5.1,5.1,0,0,0-5.1-5.1Z" transform="translate(-103.727 -178.594)"/><path class="f" d="M561.113,301.65H365.859a17.891,17.891,0,0,0-17.909,17.863V590.024a17.89,17.89,0,0,0,17.909,17.863H561.113a17.89,17.89,0,0,0,17.909-17.863V319.513a17.891,17.891,0,0,0-17.909-17.863Z" transform="translate(-104.077 -157.087)"/><rect class="g" width="225.579" height="299.855" rx="20" transform="translate(246.614 148.231)"/><rect class="h" width="202.654" height="243.13" transform="translate(258.077 176.593)"/><circle class="h" cx="2.751" cy="2.751" r="2.751" transform="translate(355.736 159.235)"/><circle class="h" cx="8.253" cy="8.253" r="8.253" transform="translate(350.234 425.161)"/><path class="i" d="M408.135,401.65H307.881a9.913,9.913,0,0,0-9.931,9.894V631.089a9.913,9.913,0,0,0,9.931,9.894H408.135a9.912,9.912,0,0,0,9.931-9.894V411.544a9.913,9.913,0,0,0-9.931-9.894Z" transform="translate(-99.927 -165.388)"/><rect class="g" width="118.291" height="236.583" rx="11" transform="translate(198.931 238.096)"/><rect class="h" width="100.869" height="192.567" transform="translate(207.643 260.103)"/><circle class="h" cx="0.917" cy="0.917" r="0.917" transform="translate(245.239 248.183)"/><rect class="h" width="20.174" height="1.834" rx="0.917" transform="translate(250.741 248.183)"/><circle class="h" cx="6.419" cy="6.419" r="6.419" transform="translate(251.199 455.422)"/><path class="d" d="M285.3,668.323s-12.159-41.264,2.283-71.654a65.189,65.189,0,0,0,5.3-40.907,109.646,109.646,0,0,0-5.786-19.193" transform="translate(-98.479 -176.588)"/><path class="c" d="M295.79,514.8c0,5.062-9.17,19.724-9.17,19.724s-9.17-14.672-9.17-19.724a9.17,9.17,0,1,1,18.34,0Z" transform="translate(-98.225 -174.02)"/><path class="c" d="M312.333,544.877c-2.751,4.246-18.413,11.582-18.413,11.582s.284-17.294,3.035-21.54a9.17,9.17,0,1,1,15.378,9.958Z" transform="translate(-99.592 -176.074)"/><path class="c" d="M311.272,596.846c-4.521,2.274-21.742.706-21.742.706s8.977-14.782,13.489-17.056a9.17,9.17,0,0,1,8.253,16.359Z" transform="translate(-99.228 -180.167)"/><path class="c" d="M301.871,636.317c-4.071,3.008-21.311,4.365-21.311,4.365s6.346-16.084,10.417-19.092a9.17,9.17,0,0,1,10.894,14.727Z" transform="translate(-98.483 -183.518)"/><path class="c" d="M272.63,558.439c3.668,3.521,20.531,7.18,20.531,7.18s-4.136-16.79-7.767-20.311a9.17,9.17,0,1,0-12.764,13.14Z" transform="translate(-97.568 -177.073)"/><path class="c" d="M261.962,604.5c4.521,2.274,21.742.706,21.742.706s-8.977-14.782-13.489-17.056a9.17,9.17,0,1,0-8.253,16.359Z" transform="translate(-96.491 -180.774)"/><path class="c" d="M258.145,650.917c4.071,3.008,21.311,4.365,21.311,4.365S273.11,639.2,269.039,636.19a9.17,9.17,0,0,0-10.894,14.727Z" transform="translate(-96.343 -184.73)"/><path class="j" d="M1039.257,524.516c-10.151-12.315-22.448-26.464-20.724-42.851,1.394-13.269-1.944-25.538-1.284-38.853.917-18.917-2.879-33.727-16.506-45.849-7.96-7.088-21.265-12.654-25.226-11.233-7.849,2.806-16.414,1.733-24.493,3.668-6.135,1.431-10.215,3.668-12.746,6.419-5.089,4.585-5.172,11-2.852,17.835a30.123,30.123,0,0,0,14.883,42.255c-5.658,2.366-10.545,7.813-12.453,18.872a129.036,129.036,0,0,1-5.988,22.292,36.256,36.256,0,0,1-3.668,1.476c.275.11.559.183.834.284-.6.229-1.183.458-1.834.66a19.453,19.453,0,0,0,3.347.972c-7.336,18.532-16.506,30.013-16.506,30.013s-17.1,3.778-23.75-2.833c0,0,1.082,1.265,2.549,3.164-6.5-2.7-17.175-7.1-26.3-10.72-6.621-2.632-8.317,0-8.253,3.668A12.217,12.217,0,0,0,853.7,525.3a44.615,44.615,0,0,0-6.135-3.3c-3.8-.917-16.148-7.556-28.5,15.1-7.189,13.177-25.621,37.229-39.788,55.019-27.555,12.673-63.428,28.72-76.761,32.755h-8.546c-1.119-1.834-1.9-2.989-1.9-2.989l-.66.44-.284-.44s-16.781,11.618-33.819,11.71a32.088,32.088,0,0,1-7.189-.917c-7.831-1.971-13.351-2.852-17.294-2.751-4.667-.083-7.336,1.027-8.95,3.118h0a8.188,8.188,0,0,0-.6.862h0a10.13,10.13,0,0,0-.5.917h0c-.147.33-.293.679-.422,1.036a2.127,2.127,0,0,0,.532,1.788,9.552,9.552,0,0,0,.743.917l.477.514a75.772,75.772,0,0,0,10.912,8.445c1.4.917,2.889,1.926,4.438,2.925l2.944,1.834,2.632,1.641,1.055.651,1.174.715,2.1,1.275,1.247.752,2.357,1.4,1.907,1.128c4.988,2.944,9.958,5.8,14.442,8.326l3.136,1.871.3.165,2.017,1.128,3.484,1.935,2.393,1.32,1.119.614,1.2.66.238.128,2.091,1.137a3.026,3.026,0,0,0,2.439-.66c.605-2.568,2.081-8.07,3.668-8.491s8.455-12.425,10.389-20.458h18.542a81.7,81.7,0,0,0,10.857-1.669c-4.787,3.411-9.528,5.557-13.214,4.64-7.794-1.935-15.176,2.815-15.919,7.5a1.2,1.2,0,0,1-.092.293c-.027.1-.046.193-.064.284s-.055.229-.073.349a1.552,1.552,0,0,0,0,.293v1.265a1.842,1.842,0,0,0,.092.376c.037.128,0,.165.064.239a4.56,4.56,0,0,0,.2.486l.046.119a4.933,4.933,0,0,0,.348.578l.147.193a3.872,3.872,0,0,0,.3.376l.211.211c.11.11.229.22.348.33l.257.211.413.3.3.2.5.293.33.174.623.294.312.137c.33.138.679.266,1.055.385.6.193,1.3.394,2.1.6l.8.193,1.165.266.614.138q1.192.257,2.531.514l1.238.229,1.009.184,2.32.4c1.449.248,2.962.5,4.585.734l4,.605,5.208.743,1.155.156,1.834.257,2.687.358,1.834.238h0l4.759.605,1.485.183,3,.367c3.943.477,7.758.917,11.27,1.311l4.062.458,2.054.229.917.092,2.458.266,1.366.147,1.687.174,2.375.248h.257l1.522.156h0a1.385,1.385,0,0,0,1.531-1.348h0v-.156a1.339,1.339,0,0,0,.22-.715,31.175,31.175,0,0,1,.853-6.712c.1-.376.22-.761.348-1.146l.147-.44c.165-.468.33-.917.523-1.421a10.173,10.173,0,0,0,.358-1.045,1.288,1.288,0,0,1,.1-.339c.037-.119.092-.376.128-.568,1.907-6.52-.394-18.679-1.055-23.457a25.457,25.457,0,0,0-1.045-4.493,1.852,1.852,0,0,0,.358,0A10.82,10.82,0,0,0,782.9,631.9c14.012-5,25.822-10.71,29.555-16.432a25.592,25.592,0,0,1,18.046,1.889c7.253,3.6,62.126,21.513,87.673,29.784,4.585,3.952,8.179,6.263,10.169,6.089,0,0,32.526,5.264,45.6-5.007,1.165.807,1.9,1.238,1.9,1.238s19-9.436,21.852-21.714c.917-3.98,1.752-9.848,2.6-16.341a23.76,23.76,0,0,0,6.9-16.7c.6-20.614,8.583-44.162,14.507-65.106,7.189.568,9.968-.789,16.561-4.044l-.293-.376C1038.432,524.9,1038.845,524.718,1039.257,524.516ZM930.328,555.391l-3.668-1.22a30.251,30.251,0,0,0,3.164-5.263Zm-20.44,8.675,22.008,13.2.193,2.687a19.257,19.257,0,0,0,.183,6.144c-9.7-8.62-21.054-19.083-22.393-22.045ZM900.9,544.809c-2.4-.99-4.392-1.889-5.759-2.632,1.834.128,3.576.238,5.1.321a11.409,11.409,0,0,1,.66,2.311Zm-58.944,21.522s3.8-8.491,12.352,5.667c1.33,2.2,3.778,5.7,7.015,10.041L836.42,578.71c2.934-4.548,4.906-8.776,5.539-12.37Z" transform="translate(-126.855 -164.048)"/><path class="k" d="M917.957,544.245s-17.423-7.336-31.177-12.838-5.5,12.838-5.5,12.838,22.925,6.419,22.925,7.336,19.257,1.834,19.257,1.834Z" transform="translate(-148.146 -176.074)"/><path class="l" d="M917.957,544.245s-17.423-7.336-31.177-12.838-5.5,12.838-5.5,12.838,22.925,6.419,22.925,7.336,19.257,1.834,19.257,1.834Z" transform="translate(-148.146 -176.074)"/><path class="m" d="M995.029,466.116S963.851,449.61,958.349,481.7a131.03,131.03,0,0,1-22.925,54.1s-16.506,3.668-22.925-2.751c0,0,15.589,18.34,8.253,20.174,0,0,16.506,11.921,23.842,8.253s12.838-28.427,15.589-34.846S973.021,464.282,995.029,466.116Z" transform="translate(-150.942 -170.387)"/><path class="n" d="M995.029,466.116S963.851,449.61,958.349,481.7a131.03,131.03,0,0,1-22.925,54.1s-16.506,3.668-22.925-2.751c0,0,15.589,18.34,8.253,20.174,0,0,16.506,11.921,23.842,8.253s12.838-28.427,15.589-34.846S973.021,464.282,995.029,466.116Z" transform="translate(-150.942 -170.387)"/><path class="k" d="M983.5,452.33s19.257,22.008,20.174,40.347,22.008-19.257,23.842-20.174-18.34-32.095-20.174-42.181S983.5,452.33,983.5,452.33Z" transform="translate(-156.836 -167.606)"/><path class="k" d="M914.9,320.75l-12.15,11,5.731,23.154,15.589-14.672-1.834-14.672Z" transform="translate(-74.94 -26.626)"/><path class="k" d="M637.591,498.5H616.5l8.253,20.174,20.174-5.5Z" transform="translate(-51.177 -41.382)"/><path class="n" d="M697.8,639.33s-21.843,15.213-40.5,10.481-23.732-2.962-25.9,3.145c-2.008,5.621,52.122,35.35,60.75,40.045a.99.99,0,0,0,1.44-.642c.587-2.494,2.008-7.84,3.53-8.253,1.981-.532,11-17.423,10.509-24.062S697.8,639.33,697.8,639.33Z" transform="translate(-127.602 -185.119)"/><path class="o" d="M696.8,639.33s-21.843,15.213-40.5,10.481-23.732-2.962-25.9,3.145c-2.008,5.621,52.122,35.35,60.75,40.045a.99.99,0,0,0,1.44-.642c.587-2.494,2.008-7.84,3.53-8.253,1.981-.532,11-17.423,10.509-24.062S696.8,639.33,696.8,639.33Z" transform="translate(-127.519 -185.119)"/><path class="m" d="M883.811,598.753,822.372,590.5S722.421,638.183,710.5,639.1l2.751,21.091h18.34c7.336,0,78.861-15.589,88.948-31.177a24.557,24.557,0,0,1,17.423,1.834c9.17,4.585,97.2,33.012,97.2,33.012Z" transform="translate(-134.173 -181.065)"/><path class="n" d="M883.811,598.753,822.372,590.5S722.421,638.183,710.5,639.1l2.751,21.091h18.34c7.336,0,78.861-15.589,88.948-31.177a24.557,24.557,0,0,1,17.423,1.834c9.17,4.585,97.2,33.012,97.2,33.012Z" transform="translate(-134.173 -181.065)"/><path class="k" d="M697.587,486.5,687.5,499.338l10.087,5.5,14.672-11Z" transform="translate(-57.071 -40.386)"/><path class="m" d="M955.313,607.634s-33.012-28.262-35.295-33.388-56.4-39.972-60.072-40.888-15.589-7.336-27.51,14.672S776.5,623.223,776.5,623.223s13.755,19.257,18.34,18.34,55.936-44.015,59.6-65.106c0,0,3.668-8.253,11.921,5.5s61.438,79.778,71.525,78.861c0,0,39.43,6.419,47.683-9.17S955.313,607.634,955.313,607.634Z" transform="translate(-139.652 -176.191)"/><path class="p" d="M988.97,467.875s-11.463,5.043-12.379,26.134S955.5,550.863,955.5,550.863l1.834,42.181s22.008,22.008,23.842,35.763S998.6,651.731,998.6,651.731s18.34-9.17,21.091-21.091,4.585-41.264,9.17-52.268,1.834-79.778,1.834-79.778l-13.755-23.842L1009.6,466.5l-19.257,22.008S979.8,474.294,988.97,467.875Z" transform="translate(-154.512 -170.772)"/><path class="n" d="M961.753,579.4s-2.751-33.012,5.5-40.347l16.506-46.766s5.96-22.466,5.043-24.3-21.549,17.881-21.549,17.881l-13.755,48.6,3.668,51.351Z" transform="translate(-154.346 -170.885)"/><path class="m" d="M960.753,579.362s-2.751-33.011,5.5-40.347l16.506-46.766s6.419-22.925,5.5-24.759-22.008,18.34-22.008,18.34l-13.755,48.6,3.668,51.351Z" transform="translate(-154.262 -170.844)"/><path class="k" d="M960.155,570.322s-45.849-14.672-48.6-18.34-32.094-27.51-42.181-11,37.6,21.091,37.6,21.091l48.6,29.344Z" transform="translate(-147.246 -176.476)"/><path class="n" d="M776.983,644.189l-13.571-2.439s-22.228,28.472-33.809,25.584-22.237,9.573-10,13.571c11.05,3.613,58.77,8.666,67.857,9.6a1.339,1.339,0,0,0,1.476-1.3,29.2,29.2,0,0,1,2.109-10.335c2.448-6.006,0-18.908-.679-23.842a23.686,23.686,0,0,0-2.669-8.253Z" transform="translate(-134.478 -185.32)"/><path class="o" d="M776.735,645.159l-13.571-2.439s-22.228,28.472-33.791,25.593-22.237,9.573-10,13.571c11.05,3.613,58.77,8.666,67.857,9.6a1.339,1.339,0,0,0,1.476-1.3,29.194,29.194,0,0,1,2.027-10.325c2.448-6.006,0-18.908-.679-23.842a23.687,23.687,0,0,0-2.668-8.253Z" transform="translate(-134.459 -185.4)"/><ellipse class="n" cx="29.775" cy="29.203" rx="29.775" ry="29.203" transform="translate(804.425 237.058)"/><ellipse class="k" cx="29.775" cy="29.203" rx="29.775" ry="29.203" transform="translate(800.989 237.058)"/><path class="m" d="M1015.884,465.5s34.845,11.921,34.845,36.68-19.257,64.189-20.174,96.284-51.351,27.51-51.351,27.51-7.336-108.2,0-116.457S1019.552,469.168,1015.884,465.5Z" transform="translate(-156.209 -170.689)"/><path class="n" d="M1007.828,519.325s-12.838,56.853-43.1,46.766c0,0-15.589,22.925-4.585,33.012,0,0,26.593,6.419,44.016-11s30.26-23.842,33.011-44.932,4.585-50.434-4.585-47.683S1007.828,519.325,1007.828,519.325Z" transform="translate(-154.571 -173.163)"/><path class="m" d="M1008.827,518.325s-12.838,56.853-43.1,46.766c0,0-15.589,22.925-4.585,33.011,0,0,26.593,6.419,44.015-11s30.261-23.842,33.011-44.932,4.585-50.434-4.585-47.683S1008.827,518.325,1008.827,518.325Z" transform="translate(-154.654 -173.08)"/><path class="p" d="M798.4,680a.842.842,0,0,1-.083.257,26.857,26.857,0,0,0-1.44,4.851c.22-.715.477-1.449.77-2.182A13.315,13.315,0,0,0,798.4,680Z" transform="translate(-141.344 -188.495)"/><path class="p" d="M720.038,682.019c-3.778-1.238-5.364-3.274-5.429-5.419-1.559,2.989-.578,6.345,4.759,8.088,11.05,3.613,58.779,8.666,67.857,9.6a1.339,1.339,0,0,0,1.476-1.311h0a1.348,1.348,0,0,0-1.2-1.366C777.542,690.547,730.941,685.577,720.038,682.019Z" transform="translate(-134.459 -188.213)"/><path class="p" d="M631.663,652.254a11.292,11.292,0,0,1,.917-1.944,8.942,8.942,0,0,0-2.155,3.558c-2.008,5.621,52.122,35.35,60.75,40.045a.99.99,0,0,0,1.44-.651h0a.99.99,0,0,0-.486-1.1C682.592,686.944,629.682,657.811,631.663,652.254Z" transform="translate(-127.522 -186.03)"/><path class="p" d="M703.312,686.365c-.486.128-.963.779-1.412,1.669l.147-.055c.4-.11,1.091-.917,1.926-2.109a1.782,1.782,0,0,1-.66.5Z" transform="translate(-133.46 -188.982)"/><path class="n" d="M980.883,456.168c-2.586,5.7-3.127,12.132-5.025,18.111-3.769,11.857-13.223,21.668-24.548,25.456,9.528,3.8,20.77-.844,28.133-8.546s11.682-17.955,15.818-27.932c10.692,7.189,9.39,23.713,12.984,36.579a40.567,40.567,0,0,0,21.6,25.813,38.669,38.669,0,0,0,33.076-.669c-9.8-11.921-23.759-28.362-22.1-44.281,1.348-12.893-7.9-22.741-7.272-35.68.917-18.34-6.107-27.656-19.257-39.43-7.684-6.887,4.411-16.6-5.5-13.755-3.9,1.119-8.005-3.053-11.829-1.678-7.574,2.751-15.846,1.687-23.64,3.521C932.805,403.194,984.661,447.842,980.883,456.168Z" transform="translate(-154.164 -164.411)"/><path class="q" d="M981.883,455.143c-2.586,5.7-3.127,12.132-5.025,18.111-3.769,11.857-13.223,21.668-24.548,25.456,9.527,3.8,20.77-.844,28.133-8.546s11.682-17.955,15.818-27.931c10.692,7.189,9.39,23.713,12.985,36.579a40.567,40.567,0,0,0,21.6,25.813,38.669,38.669,0,0,0,33.076-.669c-9.8-11.921-22.842-25.612-21.183-41.53,1.348-12.893-.66-26.143,0-39.073.917-18.34-8.079-36.056-21.237-47.83-7.684-6.887-19.688-7.767-23.521-6.419-7.574,2.751-15.846,1.687-23.64,3.521C933.805,402.169,985.661,446.817,981.883,455.143Z" transform="translate(-154.247 -164.302)"/></g></svg>