<svg xmlns="http://www.w3.org/2000/svg" width="961.845" height="436.795" viewBox="0 0 961.845 436.795">
    <g id="undraw_shared_workspace_hwky" transform="translate(-0.001 0)">
        <path id="Path_1" data-name="Path 1" d="M586.947,565.136c14.376,15.426,15.119,38.1,15.119,38.1S579.5,600.9,565.125,585.472s-15.119-38.1-15.119-38.1S572.571,549.71,586.947,565.136Z" transform="translate(-116.155 -202)" fill="tomato"/>
        <path id="Path_2" data-name="Path 2" d="M632.2,589.215c-15.426,14.376-38.1,15.119-38.1,15.119s2.338-22.565,17.764-36.941,38.1-15.119,38.1-15.119S647.63,574.839,632.2,589.215Z" transform="translate(-116.155 -202)" fill="tomato"/>
        <path id="Path_3" data-name="Path 3" d="M628.37,635H571.63a5.8,5.8,0,0,1-5.219-3.265l-12.353-25.393A5.8,5.8,0,0,1,559.277,598h81.446a5.8,5.8,0,0,1,5.219,8.342l-12.353,25.393A5.8,5.8,0,0,1,628.37,635Z" transform="translate(-116.155 -202)" fill="#3f3d56"/>
        <circle id="Ellipse_1" data-name="Ellipse 1" cx="47.243" cy="47.243" r="47.243" transform="translate(719.784 28.826)" fill="#ffb8b8"/>
        <path id="Path_4" data-name="Path 4" d="M847.92,301.692s8.9,67.1-4.793,74.631,81.478,8.216,81.478,8.216-21.225-58.2-11.64-76Z" transform="translate(-116.155 -202)" fill="#ffb8b8"/>
        <path id="Path_5" data-name="Path 5" d="M994.1,384.878l-7.915,36.042L969.45,497.172l-.5,4.176-5.776,48.345-3.842,32.116-2.576,21.574c-15.663,8.05-27.015,13.607-27.015,13.607s-.977-4.9-2.551-11.159c-10.992,3.3-31.332,8.763-48.57,9.855,6.277,7,9.161,13.569,5.249,18.419-11.808,14.622-60.558-16.01-77.608-27.433a46.151,46.151,0,0,0-.45,8.262L792.762,604.9l1.291-23.09,2.178-39.068,2.737-48.993A51.448,51.448,0,0,1,796.8,487.3c-4-14.211-8.847-42.588-12.566-66.385-2.994-19.151-5.242-35.335-5.718-38.779-.064-.45-.1-.681-.1-.681l72.231-31.917c5.133,11.9,29.1,15.483,29.1,15.483,19.858-1.368,35.425-11.84,35.425-11.84Z" transform="translate(-116.155 -202)" fill="#d0cde1"/>
        <path id="Path_6" data-name="Path 6" d="M935.22,603.3s-3.058,1.047-8.031,2.531c-10.992,3.3-31.332,8.763-48.57,9.855-14.841.951-27.381-1.336-29.675-11.018-.983-4.163.411-7.587,3.45-10.4,9.071-8.41,32.765-11.423,51.557-12.457,5.307-.289,10.215-.424,14.3-.475,6.938-.09,11.487.051,11.487.051l.109.424Z" transform="translate(-116.155 -202)" fill="#ffb8b8"/>
        <path id="Path_7" data-name="Path 7" d="M843.88,233.382l-8.833-3.536s18.47-20.334,44.167-18.566l-7.228-7.957s17.667-7.073,33.727,11.493c8.443,9.76,18.211,21.232,24.3,34.155h9.46l-3.948,8.694,13.819,8.694L935.161,264.8a48.579,48.579,0,0,1,.385,14.42,18.657,18.657,0,0,1-6.832,12.205h0s-10.955-22.676-10.955-26.212v8.841s-8.833-7.957-8.833-13.261l-4.818,6.189-2.409-9.725-29.712,9.725,4.818-7.957-18.47,2.652,7.228-9.725s-20.879,11.493-21.682,21.218-6.914,18.94-6.914,18.94S820.592,246.643,843.88,233.382Z" transform="translate(-116.155 -202)" fill="#2f2e41"/>
        <path id="Path_8" data-name="Path 8" d="M1045.45,550.573c-4.812,5.217-16.736,13.074-31.191,21.58-5.377,3.161-11.1,6.418-16.942,9.656-13.935,7.729-28.525,15.387-40.565,21.574-15.663,8.05-27.015,13.607-27.015,13.607s-.977-4.9-2.551-11.159c-2.107-8.384-5.281-19.222-8.59-24.021-.116-.167-.231-.321-.347-.475-.964-1.266-1.934-2-2.891-2l47.813-29.636,20.661-12.81-14.886-35.534-18.67-44.573,11.269-35.855,11.326-36.042H994.1s7.028,15.342,16.016,36.736c1.343,3.2,2.73,6.534,4.144,9.977C1032.75,476.563,1055.8,539.363,1045.45,550.573Z" transform="translate(-116.155 -202)" fill="#d0cde1"/>
        <path id="Path_9" data-name="Path 9" d="M883.869,634.1c-11.808,14.622-60.558-16.01-77.608-27.433-3.713-2.486-5.923-4.06-5.923-4.06l15.6-20.8,4.94-6.585s4.42,2.345,10.954,6.161c.238.141.475.283.72.424,5.634,3.309,12.708,7.632,19.845,12.457,9.849,6.662,19.807,14.263,26.225,21.419C884.9,622.682,887.781,629.255,883.869,634.1Z" transform="translate(-116.155 -202)" fill="#ffb8b8"/>
        <path id="Path_10" data-name="Path 10" d="M831.83,581.386a30.7,30.7,0,0,0-5.2.424c-14.77,2.538-19.126,15.907-20.366,24.863a46.144,46.144,0,0,0-.45,8.262L792.762,604.9l-4.754-3.656c-11.442-3.99-21.638-11.076-30.478-19.434A153.2,153.2,0,0,1,737,557.467a214.67,214.67,0,0,1-15.881-27.24,20.034,20.034,0,0,1-.276-16.993L737,477.225l23.617-52.63q.26-1.879.572-3.675c4.684-26.854,17.231-38.779,17.231-38.779h9.585l6.412,38.779,7.966,48.178L796.8,487.3l-12.9,42.049,12.329,13.389Z" transform="translate(-116.155 -202)" fill="#d0cde1"/>
        <path id="Path_11" data-name="Path 11" d="M842.679,469.136l8.194,9.56c3.044-.58,6.224-1.263,9.5-2.029l-2.354-7.532,5.755,6.714c34.691-8.532,77.69-25.121,77.69-25.121s-46.422,3.4-81.083-4.169c-15.336-3.35-31.115,4.252-37.408,18.633-3.658,8.359-3.083,15.6,9.89,15.6a85.69,85.69,0,0,0,13.076-1.23Z" transform="translate(-116.155 -202)" fill="tomato"/>
        <path id="Path_12" data-name="Path 12" d="M1029.49,626.267v3.9a8.57,8.57,0,0,1-.585,3.129,8.8,8.8,0,0,1-.623,1.285,8.633,8.633,0,0,1-7.42,4.214H733.971a8.633,8.633,0,0,1-7.42-4.214,8.78,8.78,0,0,1-.623-1.285,8.568,8.568,0,0,1-.585-3.129v-3.9a8.626,8.626,0,0,1,8.628-8.628h16.537v-1.818a.359.359,0,0,1,.36-.36H759.5a.359.359,0,0,1,.36.36v1.818h5.39v-1.818a.359.359,0,0,1,.36-.36h8.628a.359.359,0,0,1,.36.36v1.818h5.4v-1.818a.359.359,0,0,1,.36-.36h8.628a.359.359,0,0,1,.36.36v1.818h5.39v-1.818a.359.359,0,0,1,.36-.36h8.628a.359.359,0,0,1,.36.36v1.818h5.39v-1.818a.359.359,0,0,1,.36-.36h8.628a.359.359,0,0,1,.36.36v1.818h5.4v-1.818a.359.359,0,0,1,.36-.36H833.2a.359.359,0,0,1,.36.36v1.818h5.39v-1.818a.359.359,0,0,1,.36-.36h67.586a.359.359,0,0,1,.36.36v1.818h5.4v-1.818a.359.359,0,0,1,.36-.36h8.628a.363.363,0,0,1,.36.36v1.818h5.39v-1.818a.359.359,0,0,1,.36-.36h8.628a.359.359,0,0,1,.36.36v1.818h5.39v-1.818a.359.359,0,0,1,.36-.36h8.628a.359.359,0,0,1,.36.36v1.818h5.4v-1.818a.359.359,0,0,1,.36-.36h8.628a.358.358,0,0,1,.353.36v1.818h5.4v-1.818a.359.359,0,0,1,.36-.36H980.6a.359.359,0,0,1,.36.36v1.818h5.39v-1.818a.359.359,0,0,1,.36-.36h8.628a.359.359,0,0,1,.36.36v1.818h25.165A8.626,8.626,0,0,1,1029.49,626.267Z" transform="translate(-116.155 -202)" fill="#3f3d56"/>
        <path id="Path_13" data-name="Path 13" d="M1006.39,462.037H899.455v-2.2H850.968v2.2H743.6a7.233,7.233,0,0,0-7.233,7.233V615.693a7.233,7.233,0,0,0,7.233,7.233h262.792a7.233,7.233,0,0,0,7.233-7.233V469.27a7.233,7.233,0,0,0-7.231-7.233Z" transform="translate(-116.155 -202)" fill="#3f3d56"/>
        <circle id="Ellipse_2" data-name="Ellipse 2" cx="16.061" cy="16.061" r="16.061" transform="translate(742.986 295.096)" fill="none" stroke="#d0cde1" stroke-miterlimit="10" stroke-width="2"/>
        <circle id="Ellipse_3" data-name="Ellipse 3" cx="16.061" cy="16.061" r="16.061" transform="translate(737.847 300.878)" fill="#d0cde1"/>
        <circle id="Ellipse_4" data-name="Ellipse 4" cx="23.383" cy="23.383" r="23.383" transform="translate(258.928 142.322)" fill="#2f2e41"/>
        <path id="Path_14" data-name="Path 14" d="M404.98,344.966a23.386,23.386,0,0,1,20.584,34.48,23.377,23.377,0,1,0-38.839-25.687,23.325,23.325,0,0,1,18.255-8.793Z" transform="translate(-116.155 -202)" fill="#2f2e41"/>
        <circle id="Ellipse_5" data-name="Ellipse 5" cx="68.686" cy="68.686" r="68.686" transform="translate(169.932 28.283)" fill="#2f2e41"/>
        <path id="Path_15" data-name="Path 15" d="M300.865,256.353a68.674,68.674,0,0,1,95.19-7.2c-.562-.534-1.117-1.072-1.7-1.591a68.686,68.686,0,0,0-91.271,102.669c.584.519,1.183,1.008,1.779,1.5a68.674,68.674,0,0,1-4-95.379Z" transform="translate(-116.155 -202)" fill="#2f2e41"/>
        <circle id="Ellipse_6" data-name="Ellipse 6" cx="44.239" cy="44.239" r="44.239" transform="translate(193.797 76.596)" fill="#a0616a"/>
        <path id="Path_16" data-name="Path 16" d="M322.758,336.8s5.821,53.552-3.493,59.373,53.552,13.97,53.552,13.97-9.313-58.209,13.97-73.343Z" transform="translate(-116.155 -202)" fill="#a0616a"/>
        <path id="Path_17" data-name="Path 17" d="M378.638,386.864s17.335-8.1-7.631-5.212-46.506-8.176-46.506-8.176-7.564-7.567-8.729.582,3.493,23.284-22.119,25.612-48.9-4.657-58.209,12.806-4.657,93.134-4.657,93.134,17.463,62.866,31.433,72.179S398.428,574.3,398.428,574.3l34.925-62.865V438.088S428.7,412.476,396.1,419.461c0,0-20.955-4.657-19.791-15.134S378.638,386.864,378.638,386.864Z" transform="translate(-116.155 -202)" fill="#d0cde1"/>
        <path id="Path_18" data-name="Path 18" d="M266.84,622.278c.72-3.135,1.2-4.908,1.2-4.908l-.373-2.551-3.835-26.045-1.613-10.986c13.967-5.821,17.462-32.6,17.462-32.6l.527-.315,2.384-1.426v-.006l8.558-5.133.173-.1,3.456,2.3,7.022,4.683a82.572,82.572,0,0,0,65.023,14.9,71.585,71.585,0,0,0,15.3-4.42l16.935-5.647.527-.173.52.077,9.932,1.5.18.032.822.122-2.3,15.9-3.334,23.109c8.808,4.664,16.64,13.427,23.488,24.227q2.274,3.585,4.407,7.459c1.85,3.341,3.617,6.816,5.3,10.376.206.424.4.854.6,1.285.649,1.394,1.291,2.8,1.915,4.214H263.757c.231-1.42.463-2.775.687-4.08a.99.99,0,0,0,.026-.135c.084-.437.161-.861.231-1.285C265.485,628.413,266.243,624.873,266.84,622.278Z" transform="translate(-116.155 -202)" fill="#2f2e41"/>
        <path id="Path_19" data-name="Path 19" d="M259.892,398.506s12.806,23.284,8.149,52.388,13.97,101.283,13.97,101.283l13.97-3.493s-9.313-60.537-6.985-74.507,2.328-68.686-9.313-75.671S259.892,398.506,259.892,398.506Z" transform="translate(-116.155 -202)" fill="#2f2e41"/>
        <path id="Path_20" data-name="Path 20" d="M395.282,422.7l4.893,128.893,9.313,5.821s13.388-141.447,6.4-141.447H401.679a6.406,6.406,0,0,0-6.4,6.733Z" transform="translate(-116.155 -202)" fill="#2f2e41"/>
        <circle id="Ellipse_7" data-name="Ellipse 7" cx="5.821" cy="5.821" r="5.821" transform="translate(166.439 335.625)" fill="#6c63ff"/>
        <circle id="Ellipse_8" data-name="Ellipse 8" cx="5.821" cy="5.821" r="5.821" transform="translate(282.856 341.446)" fill="#6c63ff"/>
        <path id="Path_21" data-name="Path 21" d="M200.2,65.536v44.239h10.245l13.038-13.97-1.746,13.97h45.287l-2.794-13.97,5.588,13.97h7.217V65.536Z" fill="#2f2e41"/>
        <ellipse id="Ellipse_9" data-name="Ellipse 9" cx="3.493" cy="6.403" rx="3.493" ry="6.403" transform="translate(189.722 105.118)" fill="#a0616a"/>
        <ellipse id="Ellipse_10" data-name="Ellipse 10" cx="3.493" cy="6.403" rx="3.493" ry="6.403" transform="translate(279.363 105.118)" fill="#a0616a"/>
        <path id="Path_22" data-name="Path 22" d="M422.877,548.685s-52.97-9.9-56.462,7.567,58.791,9.9,58.791,9.9Z" transform="translate(-116.155 -202)" fill="#a0616a"/>
        <path id="Path_23" data-name="Path 23" d="M421.712,428.775S548.607,530.058,525.324,554.506s-111.761,17.463-111.761,17.463l5.821-29.1,51.224-5.821L445,511.431l-23.284,2.328Z" transform="translate(-116.155 -202)" fill="#d0cde1"/>
        <path id="Path_24" data-name="Path 24" d="M234.28,597.58l16.3,12.806s11.642,36.089,29.1,25.612-16.3-47.731-16.3-47.731l-19.791-6.985Z" transform="translate(-116.155 -202)" fill="#a0616a"/>
        <path id="Path_25" data-name="Path 25" d="M250.579,410.148l-16.255,4.892S121.355,498.625,116.7,521.909,138.818,558,138.818,558L240.1,605.73l10.478-27.94-47.731-24.448s3.493-6.985-10.478-8.149-16.3-16.3-16.3-16.3,27.94-43.074,43.074-33.761,19.791,16.3,19.791,16.3Z" transform="translate(-116.155 -202)" fill="#d0cde1"/>
        <path id="Path_26" data-name="Path 26" d="M482.416,626.267v3.9a8.57,8.57,0,0,1-.585,3.129,8.786,8.786,0,0,1-.623,1.285,8.633,8.633,0,0,1-7.42,4.214H186.9a8.633,8.633,0,0,1-7.42-4.214,8.791,8.791,0,0,1-.623-1.285,8.571,8.571,0,0,1-.585-3.129v-3.9a8.626,8.626,0,0,1,8.628-8.628h16.537v-1.818a.359.359,0,0,1,.36-.36h8.628a.359.359,0,0,1,.36.36v1.818h5.39v-1.818a.359.359,0,0,1,.36-.36h8.628a.359.359,0,0,1,.36.36v1.818h5.4v-1.818a.359.359,0,0,1,.36-.36h8.628a.359.359,0,0,1,.36.36v1.818h5.39v-1.818a.359.359,0,0,1,.36-.36h8.628a.359.359,0,0,1,.36.36v1.818h5.39v-1.818a.359.359,0,0,1,.36-.36h8.628a.359.359,0,0,1,.36.36v1.818h5.4v-1.818a.359.359,0,0,1,.36-.36h8.628a.359.359,0,0,1,.36.36v1.818h5.39v-1.818a.359.359,0,0,1,.36-.36h67.586a.359.359,0,0,1,.36.36v1.818h5.4v-1.818a.359.359,0,0,1,.36-.36h8.628a.363.363,0,0,1,.36.36v1.818h5.39v-1.818a.359.359,0,0,1,.36-.36H389.3a.359.359,0,0,1,.36.36v1.818h5.39v-1.818a.359.359,0,0,1,.36-.36h8.628a.359.359,0,0,1,.36.36v1.818h5.4v-1.818a.359.359,0,0,1,.36-.36h8.628a.358.358,0,0,1,.353.36v1.818h5.4v-1.818a.359.359,0,0,1,.36-.36h8.628a.359.359,0,0,1,.36.36v1.818h5.39v-1.818a.359.359,0,0,1,.36-.36h8.628a.359.359,0,0,1,.36.36v1.818h25.165a8.626,8.626,0,0,1,8.628,8.628Z" transform="translate(-116.155 -202)" fill="#3f3d56"/>
        <path id="Path_27" data-name="Path 27" d="M459.315,462.034H352.383v-2.2H303.9v2.2H196.523a7.233,7.233,0,0,0-7.233,7.233V615.69a7.233,7.233,0,0,0,7.233,7.233H459.315a7.233,7.233,0,0,0,7.233-7.233V469.267a7.233,7.233,0,0,0-7.233-7.233Z" transform="translate(-116.155 -202)" fill="#3f3d56"/>
        <circle id="Ellipse_11" data-name="Ellipse 11" cx="16.061" cy="16.061" r="16.061" transform="translate(195.914 295.093)" fill="none" stroke="#d0cde1" stroke-miterlimit="10" stroke-width="2"/>
        <circle id="Ellipse_12" data-name="Ellipse 12" cx="16.061" cy="16.061" r="16.061" transform="translate(190.774 300.875)" fill="#d0cde1"/>
        <rect id="Rectangle_1" data-name="Rectangle 1" width="950" height="2" transform="translate(11.845 432)" fill="#3f3d56"/>
    </g>
</svg>
