<svg xmlns="http://www.w3.org/2000/svg" xmlns:xlink="http://www.w3.org/1999/xlink" width="287" height="265.495" viewBox="0 0 287 265.495"><defs><style>.a{fill:#fff;}.b,.w{opacity:0.5;}.c{fill:url(#a);}.d{fill:#f2f2f2;}.e{fill:#e0e0e0;}.f,.i,.n{fill:tomato;}.f,.l{opacity:0.7;}.g{fill:#f5f5f5;}.h{clip-path:url(#d);}.i,.j{opacity:0.4;}.j{fill:#bdbdbd;}.k{fill:url(#h);}.l,.o{fill:#3ad29f;}.m{fill:url(#i);}.p{fill:#f55f44;}.q{fill:#fdd835;}.r{fill:url(#j);}.s{fill:url(#k);}.t{fill:url(#l);}.u,.w{fill:#47e6b1;}.v{fill:#4d8af0;}</style><linearGradient id="a" x1="0.5" y1="1" x2="0.5" gradientUnits="objectBoundingBox"><stop offset="0" stop-color="gray" stop-opacity="0.251"/><stop offset="0.54" stop-color="gray" stop-opacity="0.122"/><stop offset="1" stop-color="gray" stop-opacity="0.102"/></linearGradient><clipPath id="d"><rect class="a" width="49.012" height="33.039"/></clipPath><linearGradient id="h" x1="0.518" y1="1.092" x2="0.518" y2="-0.251" xlink:href="#a"/><linearGradient id="i" x1="0.6" y1="0.66" x2="0.6" y2="0.086" xlink:href="#a"/><linearGradient id="j" x1="0.5" y1="1" x2="0.5" gradientUnits="objectBoundingBox"><stop offset="0" stop-color="#b3b3b3" stop-opacity="0.251"/><stop offset="0.54" stop-color="#b3b3b3" stop-opacity="0.102"/><stop offset="1" stop-color="#b3b3b3" stop-opacity="0.051"/></linearGradient><linearGradient id="k" x1="0.5" y1="0.999" x2="0.5" gradientUnits="objectBoundingBox"><stop offset="0" stop-opacity="0.122"/><stop offset="0.55" stop-opacity="0.09"/><stop offset="1" stop-opacity="0.02"/></linearGradient><linearGradient id="l" x1="0.5" y1="1" x2="0.5" y2="0" xlink:href="#k"/></defs><g transform="translate(0 0.017)"><g class="b" transform="translate(52.543 44.372)"><rect class="c" width="152.853" height="205.4"/></g><rect class="d" width="148.078" height="198.235" transform="translate(54.534 47.16)"/><rect class="e" width="50.951" height="1.592" transform="translate(66.078 55.518)"/><rect class="f" width="50.951" height="1.592" transform="translate(66.078 62.683)"/><rect class="e" width="50.951" height="1.592" transform="translate(124.593 55.518)"/><rect class="e" width="50.951" height="1.592" transform="translate(132.552 100.899)"/><rect class="e" width="50.951" height="1.592" transform="translate(133.748 105.276)"/><rect class="e" width="50.951" height="1.592" transform="translate(136.138 109.656)"/><rect class="e" width="50.951" height="1.592" transform="translate(132.552 171.354)"/><rect class="e" width="50.951" height="1.592" transform="translate(133.748 175.734)"/><rect class="e" width="50.951" height="1.592" transform="translate(136.138 180.111)"/><g class="b" transform="translate(66.477 84.576)"><rect class="c" width="54.135" height="54.932"/></g><rect class="g" width="53.283" height="52.543" transform="translate(66.818 85.772)"/><g class="b" transform="translate(68.696 88.956)"><rect class="c" width="49.697" height="34.232"/></g><rect class="a" width="49.012" height="33.039" transform="translate(69.037 89.354)"/><g class="h" transform="translate(69.037 89.354)"><path class="i" d="M187.272,301.725l12.342-19.108,5.174,8.358,11.146-11.541,9.554,11.541,8.358-17.114,21.494,34.232L185.68,305.7Z" transform="translate(-191.427 -269.879)"/><circle class="i" cx="3.582" cy="3.582" r="3.582" transform="translate(1.817 1.193)"/></g><g class="b" transform="translate(66.477 155.034)"><rect class="c" width="54.135" height="54.932"/></g><rect class="g" width="53.283" height="52.543" transform="translate(66.818 156.227)"/><g class="b" transform="translate(68.696 159.414)"><rect class="c" width="49.697" height="34.232"/></g><rect class="a" width="49.012" height="33.039" transform="translate(69.037 159.809)"/><g class="h" transform="translate(69.037 159.809)"><path class="j" d="M187.272,508.425l12.342-19.108,5.174,8.361,11.146-11.545,9.554,11.545,8.358-17.118,21.494,34.232-69.661-2.386Z" transform="translate(-191.427 -476.579)"/><circle class="j" cx="3.582" cy="3.582" r="3.582" transform="translate(1.817 1.196)"/></g><g class="b" transform="translate(74.984 34.223)"><rect class="k" width="205.4" height="152.853" transform="translate(0 201.46) rotate(-78.76)"/></g><rect class="a" width="198.235" height="148.078" transform="translate(77.788 231.778) rotate(-78.76)"/><rect class="e" width="105.089" height="1.592" transform="translate(125.203 48.417) rotate(11.24)"/><rect class="e" width="105.089" height="1.592" transform="translate(95.874 196.001) rotate(11.24)"/><rect class="e" width="81.205" height="1.592" transform="translate(94.086 204.978) rotate(11.24)"/><rect class="f" width="30.251" height="1.592" transform="translate(92.303 213.96) rotate(11.24)"/><rect class="f" width="52.543" height="1.592" transform="translate(123.415 57.399) rotate(11.24)"/><rect class="e" width="94.737" height="1.592" transform="translate(121.635 66.377) rotate(11.24)"/><rect class="l" width="23.086" height="1.592" transform="translate(119.849 75.359) rotate(11.24)"/><rect class="e" width="105.089" height="1.592" transform="translate(118.066 84.339) rotate(11.24)"/><g class="b" transform="translate(116.596 122.269)"><rect class="m" width="54.135" height="94.339" transform="translate(0 53.096) rotate(-78.76)"/></g><rect class="a" width="93.146" height="52.942" transform="translate(127.671 122.776) rotate(11.24)"/><rect class="e" width="105.089" height="1.592" transform="translate(116.281 93.321) rotate(11.24)"/><rect class="n" width="11.545" height="38.612" transform="translate(135.842 131.705) rotate(11.24)"/><rect class="o" width="11.545" height="25.874" transform="translate(153.661 148.234) rotate(11.24)"/><rect class="p" width="11.545" height="13.931" transform="translate(171.638 163.982) rotate(11.24)"/><rect class="q" width="11.545" height="28.264" transform="translate(194.734 153.961) rotate(11.24)"/><path class="r" d="M703.78,379.013a53.134,53.134,0,1,0-8.692,80.936L733.5,499.9a2.587,2.587,0,0,0,3.657.072l9.571-9.2a2.587,2.587,0,0,0,.072-3.657l-38.4-39.948A53.14,53.14,0,0,0,703.78,379.013Zm-11.964,64.234a38.005,38.005,0,1,1,1.057-53.739A38.005,38.005,0,0,1,691.816,443.247Z" transform="translate(-464.686 -259.721)"/><path class="s" d="M679.286,487.6c-4.274,0-4.281,6.643,0,6.643S683.567,487.6,679.286,487.6Z" transform="translate(-506.646 -342.045)"/><path class="t" d="M718.909,425.154a31.924,31.924,0,0,0-27.538,14.224c-1.817,2.843,3.34,5.355,5.147,2.526,4.608-7.213,13.365-11.794,22.837-11.555A29.094,29.094,0,0,1,743.1,444.157c1.813,2.989,6.568.273,4.772-2.7C742.053,431.913,730.792,425.437,718.909,425.154Z" transform="translate(-516.475 -300.879)"/><path class="n" d="M716.01,373.093a53.134,53.134,0,1,0-8.692,80.933l38.408,39.955a2.587,2.587,0,0,0,3.657.072l9.571-9.2a2.587,2.587,0,0,0,.071-3.657L720.615,441.24A53.139,53.139,0,0,0,716.01,373.093ZM704.046,437.3A38.005,38.005,0,1,1,705.1,383.56,38.005,38.005,0,0,1,704.046,437.3Z" transform="translate(-472.748 -255.819)"/><path class="n" d="M691.516,481.67c-4.275,0-4.281,6.643,0,6.643S695.8,481.67,691.516,481.67Z" transform="translate(-514.707 -338.136)"/><path class="n" d="M731.139,419.234A31.923,31.923,0,0,0,703.6,433.458c-1.817,2.843,3.34,5.355,5.147,2.526,4.609-7.213,13.365-11.794,22.837-11.555a29.094,29.094,0,0,1,23.741,13.808c1.813,2.989,6.568.273,4.772-2.7C754.273,425.966,743.025,419.489,731.139,419.234Z" transform="translate(-524.536 -296.976)"/><rect class="u" width="1.193" height="6.766" transform="translate(41.397 226.287)"/><rect class="u" width="1.193" height="6.766" transform="translate(45.378 229.071) rotate(90)"/><path class="v" d="M741.388,63.239a1.462,1.462,0,0,1-.815-1.769.707.707,0,0,0,.031-.164h0a.733.733,0,0,0-1.319-.487h0a.709.709,0,0,0-.082.143,1.462,1.462,0,0,1-1.769.815.7.7,0,0,0-.164-.031h0a.733.733,0,0,0-.481,1.326h0a.7.7,0,0,0,.143.082,1.462,1.462,0,0,1,.815,1.769.7.7,0,0,0-.031.164h0a.733.733,0,0,0,1.329.481h0a.7.7,0,0,0,.082-.143,1.462,1.462,0,0,1,1.769-.815.7.7,0,0,0,.164.031h0a.733.733,0,0,0,.487-1.319h0a.7.7,0,0,0-.16-.082Z" transform="translate(-546.463 -60.54)"/><path class="q" d="M306.964,210.389a1.462,1.462,0,0,1-.815-1.769.7.7,0,0,0,.031-.164h0a.733.733,0,0,0-1.319-.487h0a.7.7,0,0,0-.082.143,1.462,1.462,0,0,1-1.769.815.7.7,0,0,0-.164-.031h0a.733.733,0,0,0-.487,1.319h0a.7.7,0,0,0,.143.082,1.462,1.462,0,0,1,.815,1.769.7.7,0,0,0-.031.164h0a.733.733,0,0,0,1.319.487h0a.7.7,0,0,0,.082-.143,1.462,1.462,0,0,1,1.769-.815.7.7,0,0,0,.164.031h0a.733.733,0,0,0,.487-1.319h0A.7.7,0,0,0,306.964,210.389Z" transform="translate(-260.116 -157.533)"/><path class="q" d="M924.744,817.649a1.462,1.462,0,0,1-.815-1.769.71.71,0,0,0,.031-.164h0a.733.733,0,0,0-1.319-.487h0a.694.694,0,0,0-.082.143,1.462,1.462,0,0,1-1.769.815.706.706,0,0,0-.164-.031h0a.733.733,0,0,0-.487,1.319h0a.7.7,0,0,0,.143.082,1.462,1.462,0,0,1,.815,1.769.7.7,0,0,0-.031.164h0a.733.733,0,0,0,1.319.488h0a.7.7,0,0,0,.082-.143,1.462,1.462,0,0,1,1.769-.815.7.7,0,0,0,.164.031h0a.733.733,0,0,0,.487-1.319h0A.708.708,0,0,0,924.744,817.649Z" transform="translate(-667.322 -557.805)"/><circle class="p" cx="2.389" cy="2.389" r="2.389" transform="translate(107.076 23.276)"/><circle class="p" cx="2.389" cy="2.389" r="2.389" transform="translate(278.241 53.128)"/><circle class="v" cx="2.389" cy="2.389" r="2.389" transform="translate(264.709 124.381)"/><circle class="w" cx="2.389" cy="2.389" r="2.389" transform="translate(0 7.351)"/></g></svg>