<svg xmlns="http://www.w3.org/2000/svg" xmlns:xlink="http://www.w3.org/1999/xlink" width="472.44" height="251.42" viewBox="0 0 472.44 251.42"><defs><style>.a,.c{fill:tomato;}.a,.b,.g{opacity:0.1;}.d{fill:#3f3d56;}.e{fill:#65617d;}.f{opacity:0.2;}.h{fill:#d4dfec;}.i{fill:#fbbebe;}.j{fill:url(#a);}.k{fill:none;stroke:tomato;stroke-miterlimit:10;stroke-width:2px;}</style><linearGradient id="a" x1="0.5" y1="1" x2="0.5" y2="-0.001" gradientUnits="objectBoundingBox"><stop offset="0" stop-color="gray" stop-opacity="0.251"/><stop offset="0.54" stop-color="gray" stop-opacity="0.122"/><stop offset="1" stop-color="gray" stop-opacity="0.102"/></linearGradient></defs><g transform="translate(-0.011 -0.035)"><path class="a" d="M515.581,371.75q-.79,1.7-1.574,3.357-1.225,2.573-2.418,5.045c-.354.73-.708,1.447-1.053,2.164-3.9,7.972-7.545,15.022-10.64,20.821A33.216,33.216,0,0,1,470.945,420.7l-68.805.749h-.726l-5.9.063-5.045.054L375,421.731h-.626l-7.876.086h-.24l-48.547.526-43.334.454-5.041.054-31.306.34h-.036l-20.3.218h-.218l-64.2.694-19.206.209a39.955,39.955,0,0,1-12.1-1.733,39.2,39.2,0,0,1-17.736-11.229,90.716,90.716,0,0,1-18.3-31.2q-.876-2.491-1.633-5.045c-13.979-47.254,3.063-108.219,33.733-149.017q1.928-2.559,3.92-4.991l.032-.036c9.433-11.579,20.009-21.252,31.274-28.13,19.963-12.209,42.082-15.649,63.837-5.4a142.8,142.8,0,0,0,52.254,13.861c1.683.109,3.367.191,5.041.24,38.216,1.2,74.032-12.568,116.091-21.456,1.674-.354,3.353-.7,5.045-1.034,30-5.971,63.288-9.12,102.87-2.5a85.789,85.789,0,0,1,12.141,2.9q2.618.844,5.045,1.815c18.893,7.686,29.2,21.887,33.575,39.682q.622,2.477,1.075,5.041C557.994,268.889,535.259,329.6,515.581,371.75Z" transform="translate(-79.34 -172.91)"/><g class="b" transform="translate(4.956 6.221)"><path class="c" d="M204.546,217V448.221l-19.206.209a39.96,39.96,0,0,1-12.1-1.733V245.13h.032C182.7,233.538,193.28,223.865,204.546,217Z" transform="translate(-135.586 -203.198)"/><path class="c" d="M596.824,284.027H164.6q1.928-2.559,3.92-4.991V279H595.749Q596.371,281.464,596.824,284.027Z" transform="translate(-130.866 -237.068)"/><path class="c" d="M1034.745,189.3V383.038h-1.574q-1.225,2.573-2.418,5.045c-.354.73-.708,1.447-1.052,2.164V187.47Q1032.318,188.314,1034.745,189.3Z" transform="translate(-603.46 -187.066)"/><path class="c" d="M770.135,186.58v242.4l-5.045.054V187.614C766.764,187.261,768.443,186.911,770.135,186.58Z" transform="translate(-458.907 -186.58)"/><path class="c" d="M503.151,235.86V457.082l-5.041.054V235.62C499.793,235.729,501.477,235.792,503.151,235.86Z" transform="translate(-313.059 -213.37)"/><path class="c" d="M519.961,618.52q-1.225,2.573-2.418,5.045H91.883q-.876-2.491-1.633-5.045Z" transform="translate(-90.25 -422.543)"/></g><rect class="d" width="8.621" height="26.161" transform="translate(96.011 120.629)"/><rect class="d" width="8.621" height="27.676" transform="translate(328.008 119.268)"/><path class="e" d="M449.56,518.081v5.9l-68.928.635-.735.014-26.2.24-.626.009-7.963.068h-.236l-48.538.449-79.676.74h-.068l-20.258.19-.218,0-90.017.826v-6.806l21.166-12.7,42.467-.354.907,0,.3,0,.907-.014,20.39-.168.912,0,.29,0,.907,0,6.538-.054.172,0,16.129-.136h.132l125.86-1.062,3.081-.023h.309l2.35-.023L366,505.644l.907-.014.839-.009h.436l5.313-.041,1.053-.014,1.411-.009,4.424-.041,7.019-.059.907-.009,1.579-.009h.295l33.9-.29Z" transform="translate(-57.955 -275.938)"/><path class="f" d="M449.56,518.081v5.9l-68.928.635-.735.014-26.2.24-.626.009-7.963.068h-.236l-48.538.449-79.676.74h-.068l-20.258.19-.218,0-90.017.826v-6.806l21.166-12.7,42.467-.354.907,0,.3,0,.907-.014,20.39-.168.912,0,.29,0,.907,0,6.538-.054.172,0,16.129-.136h.132l125.86-1.062,3.081-.023h.309l2.35-.023L366,505.644l.907-.014.839-.009h.436l5.313-.041,1.053-.014,1.411-.009,4.424-.041,7.019-.059.907-.009,1.579-.009h.295l33.9-.29Z" transform="translate(-57.955 -275.938)"/><path class="d" d="M349.672,656.57v11.111a2.781,2.781,0,0,1-1.588,2.514,2.722,2.722,0,0,1-1.134.272l-15.835.336a2.722,2.722,0,0,1-1.225-.259,2.777,2.777,0,0,1-1.62-2.527V656.57Z" transform="translate(-215.321 -437.108)"/><path class="g" d="M349.672,656.57v11.111a2.781,2.781,0,0,1-1.588,2.514,2.722,2.722,0,0,1-1.134.272l-15.835.336a2.722,2.722,0,0,1-1.225-.259,2.777,2.777,0,0,1-1.62-2.527V656.57Z" transform="translate(-215.321 -437.108)"/><path class="d" d="M351.672,656.57v11.111a2.781,2.781,0,0,1-1.588,2.514,2.722,2.722,0,0,1-1.134.272l-15.835.336a2.721,2.721,0,0,1-1.225-.259,2.777,2.777,0,0,1-1.62-2.527V656.57Z" transform="translate(-216.414 -437.108)"/><rect class="d" width="21.402" height="14.292" transform="translate(308.952 219.462)"/><rect class="g" width="21.402" height="14.292" transform="translate(308.952 219.462)"/><rect class="d" width="21.402" height="14.292" transform="translate(308.045 219.462)"/><path class="g" d="M220.221,265.82v2.6L211.6,268.2V265.82Z" transform="translate(-115.589 -145.195)"/><path class="e" d="M316.091,267.854l-10.358,74.409a1.951,1.951,0,0,1-1.983,1.683L220.811,341.8l-1.574-.041a1.951,1.951,0,0,1-1.887-2.21l11.629-77.893a1.951,1.951,0,0,1,2.06-1.647l83.238,5.635a1.946,1.946,0,0,1,1.815,2.214Z" transform="translate(-154.717 -220.467)"/><path class="c" d="M165.37,99.16l-8.77,68.66,76.224,2.418L242.2,104Z" transform="translate(-85.543 -54.151)"/><rect class="e" width="92.861" height="78.642" rx="5.33" transform="translate(174.504 43.947)"/><rect class="c" width="84.39" height="65.484" transform="translate(178.886 49.242)"/><path class="g" d="M731.55,262.82v1.72l-8.62.177v-1.9Z" transform="translate(-394.922 -143.556)"/><path class="e" d="M792.589,336.583a1.4,1.4,0,0,1-1.361,1.488l-84.935,1.756a1.4,1.4,0,0,1-1.42-1.266l-7.3-75.9a1.4,1.4,0,0,1,1.325-1.529l84.291-4.192.907-.045a1.393,1.393,0,0,1,1.461,1.27Z" transform="translate(-417.063 -218.771)"/><path class="c" d="M628.93,98.6l76.981-3.784,6.5,68.964L636.04,165.6Z" transform="translate(-343.571 -51.78)"/><path class="g" d="M895.681,336.583a1.4,1.4,0,0,1-1.361,1.488l-8.04-81.128.907-.045a1.393,1.393,0,0,1,1.461,1.27Z" transform="translate(-520.155 -218.771)"/><path class="g" d="M231.051,259.993l-10.24,81.8-1.574-.041a1.951,1.951,0,0,1-1.887-2.21l11.629-77.893A1.951,1.951,0,0,1,231.051,259.993Z" transform="translate(-154.717 -220.461)"/><rect class="g" width="8.621" height="7.749" transform="translate(96.011 139.041)"/><path class="g" d="M272.332,483.65V485.9l-21.4.572V483.65Z" transform="translate(-137.074 -264.193)"/><path class="e" d="M351.706,483.112v76.314a1.815,1.815,0,0,1-1.747,1.792L263,563.532h-.023a1.815,1.815,0,0,1-1.792-1.792V483.112a1.815,1.815,0,0,1,1.792-1.792h86.931A1.815,1.815,0,0,1,351.706,483.112Z" transform="translate(-178.677 -341.371)"/><path class="g" d="M263,481.32v82.212h-.023a1.815,1.815,0,0,1-1.792-1.792V483.112a1.815,1.815,0,0,1,1.792-1.792Z" transform="translate(-178.677 -341.371)"/><path class="h" d="M194.6,319.15h80.534v67.263L194.6,388.228Z" transform="translate(-106.302 -174.329)"/><rect class="g" width="8.621" height="7.904" transform="translate(328.008 139.041)"/><path class="g" d="M700.332,483.65v2.908l-21.4-.572V483.65Z" transform="translate(-370.885 -264.193)"/><path class="e" d="M758.684,483.112V561.74a1.815,1.815,0,0,1-1.815,1.792h0L669.9,561.219a1.815,1.815,0,0,1-1.747-1.792V483.112a1.815,1.815,0,0,1,1.792-1.792h86.931A1.815,1.815,0,0,1,758.684,483.112Z" transform="translate(-400.994 -341.371)"/><path class="g" d="M865.5,483.112V561.74a1.815,1.815,0,0,1-1.815,1.792h0V481.32h0a1.815,1.815,0,0,1,1.815,1.792Z" transform="translate(-507.815 -341.372)"/><path class="h" d="M678.634,319.15H598.1v67.263l80.534,1.815Z" transform="translate(-326.729 -174.329)"/><path class="e" d="M554.206,483.112v76.314a1.815,1.815,0,0,1-1.747,1.792L465.5,563.532h0a1.815,1.815,0,0,1-1.815-1.792V483.112a1.815,1.815,0,0,1,1.792-1.792h86.931A1.815,1.815,0,0,1,554.206,483.112Z" transform="translate(-289.3 -341.371)"/><path class="h" d="M397.1,319.15h80.534v67.263L397.1,388.228Z" transform="translate(-216.925 -174.329)"/><path class="g" d="M449.56,533.65v5.9l-68.928.635-.735.014-26.2.24-.626.009-7.963.068h-.236l-48.538.449-79.676.74h-.068l-20.258.19-.218,0-90.017.826v-6.806l91.881-.6h.218l18.6-.127h.086l128.437-.848h.132l.077,0h.213l2.173-.014h.662l33.8-.227,2-.009.445,0Z" transform="translate(-57.955 -291.507)"/><circle class="i" cx="23.289" cy="23.289" r="23.289" transform="translate(197.793 100.212)"/><path class="j" d="M383.74,519.081a.562.562,0,0,1,.045-.159c.454-1.629,1.261-4.383,1.865-6.583.077-.272.15-.54.218-.794.667-2.482,1.965-8.294,2.686-11.919.254-1.275.454-2.269.495-2.768a75.531,75.531,0,0,1,3-7.817c1.084-2.65,2.269-5.544,3.135-7.985a27.844,27.844,0,0,0,1.329-4.469,2.314,2.314,0,0,0,0-.966,6.666,6.666,0,0,1-.218-1.588h0c-.1-2.813.735-7.259,2.033-9.124,1.588-2.268,2.722-10.735,2.722-10.735s2.35.34,2.722-1.6a2.794,2.794,0,0,0,.045-.635,3.365,3.365,0,0,0-.041-.5c-.4-2.831,6.679-5.844,10.662-6.493a8.921,8.921,0,0,1,1.361-.127,12.356,12.356,0,0,0,2.836-.653q.635-.2,1.361-.454c1.67-.563,3.666-1.307,5.785-2.123,7.967-3.09,17.613-7.259,17.613-7.259.068-.322.145-.631.231-.935a12.572,12.572,0,0,1,7.418-8.589h0v-.907c0-1.565-.068-3.176-.136-4.782,0-.313-.027-.626-.045-.939v-.513c0-.318-.032-.635-.05-.948l-.082-.064a7.442,7.442,0,0,1-1.769-1.906,6.923,6.923,0,0,1-.644-1.361,41.584,41.584,0,0,1-1.08-4.877l-.082-.336a38.111,38.111,0,0,0-1.815-4.8c-1-2.459-1.774-4.991-2.541-7.554q-.7-2.327-1.411-4.664l-.717-2.377c-.136-.454-.272-.907-.377-1.361h0a6.025,6.025,0,0,1-.118-.635h0a4.537,4.537,0,0,1,.109-2.092,14.567,14.567,0,0,1,.6-1.361,3.572,3.572,0,0,0,.227-.626h0a1.376,1.376,0,0,0,.036-.145,2.565,2.565,0,0,0,.05-.49,8.374,8.374,0,0,0-.236-1.765.031.031,0,0,1,0-.023,1.15,1.15,0,0,0-.023-.122,11.559,11.559,0,0,1-.163-1.361,12.909,12.909,0,0,1,1.574-7.064l.086-.163a11.446,11.446,0,0,1,.835-1.261h0a6.388,6.388,0,0,1,.454-.554,1.812,1.812,0,0,1-2.518-.653,1.739,1.739,0,0,1-.1-.2c-.023-.054-.041-.113-.059-.172a3.707,3.707,0,0,1,.962-3.2,8.389,8.389,0,0,1,2.6-2.132h0a1.75,1.75,0,0,1,.181-.1,7.771,7.771,0,0,1,1.2-.481h0a6.822,6.822,0,0,1,.74-.2l-1.683-.154-.681-.064a6.574,6.574,0,0,1,5.9-4.95h.49a5.333,5.333,0,0,1,.712.059,2.015,2.015,0,0,1-1.2-1.965,6.537,6.537,0,0,0,4.17,1.388h.172a13.582,13.582,0,0,1-.154-1.484h0a15.045,15.045,0,0,1,0-2.024,3.829,3.829,0,0,0,3.076,1.025l-.944-1.316a4.306,4.306,0,0,0,2.976.93l.218-.023a3.18,3.18,0,0,0,.54-.1h.041c-.086-.109-.163-.222-.241-.34l-.027-.054a4.388,4.388,0,0,1-.454-.948,2.977,2.977,0,0,1-.109-.395h0a3.97,3.97,0,0,1,.2-2.473c1.465,1.225,3.072,2.9,4.991,1.633s1.983-3.589,4.991-3.353a4.628,4.628,0,0,1,3.816,2.777,3.063,3.063,0,0,1,3.48-.794,3.108,3.108,0,0,1,1.76,3.126,6.27,6.27,0,0,1,3.789-.15c1.2.472,1.969,2,1.289,3.022a.642.642,0,0,1-.064.091c-.558.721-1.792,1.116-1.661,2.024l.191.136.59.427q3.471,2.5,6.76,5.263c1.125.944,2.323,2.078,2.4,3.553a3.92,3.92,0,0,1-.109,1.075h0c-.073.354-.172.708-.25,1.062a8.851,8.851,0,0,0-.154,2.745h0c.032.268.073.531.123.8.694,3.507,3.5,6.4,3.775,9.982v.254a8.063,8.063,0,0,1-.032,1.148,24.5,24.5,0,0,1-2.033,6.352c-.05.127-.1.254-.145.381a63.214,63.214,0,0,0-3.176,12.777,45.452,45.452,0,0,1-.907,4.578,12.128,12.128,0,0,1-2.309,4.732,7.36,7.36,0,0,1-1.524,1.361,8.472,8.472,0,0,1-1.2.64v.027c.05.277.091.554.141.83.027.145.05.29.077.454h0a.062.062,0,0,0,0,.027c.381,2.146.817,4.247,1.275,6.243l.231.994c5.717,2.064,6.393,6.293,6.434,7.913a4.376,4.376,0,0,1,0,.649s8.621.227,12.023,2.722a9.223,9.223,0,0,0,2.046,1.044,37.634,37.634,0,0,0,4.2,1.311c.73.191,1.493.377,2.269.558,1.361.313,2.8.617,4.2.908,3.716.749,7.214,1.361,8.988,1.815,4.233,1.071,13.915,10.354,13.915,10.354s1.134,9.365,2.269,10.73,3.176,6.166,3.176,6.166l7.5,13.344,3.176,5.612h2.042a3.471,3.471,0,0,1,1.456.953c.54.481,1.139,1.08,1.665,1.624l.871.93.544.6s3.3.082,4.192,2.69c2.686-.077,5.984.1,8.294,1.134a6.418,6.418,0,0,1,.907.49,3.939,3.939,0,0,1,1.874,2.568,3.784,3.784,0,0,1,.082.653v.771c-.163,3.435-2.4,6.293-4.455,8.217l.145.259s-.068.163-.2.454c-.036.086-.082.181-.132.29h0c-.268.572-.694,1.429-1.252,2.432a28.722,28.722,0,0,1-4.342,5.975l-.131.136-26.2.24-.077-.091-5.082-6.062-2.527-3.013-.077-.1-.073.721-.245,2.4-.59,5.812-.032.29v.077l-.068.672.05-.672h-.132l-48.547.454-79.681.88v.381h-.064v-.381l-20.3.218Z" transform="translate(-245.624 -268.531)"/><path class="i" d="M568.425,489.963s-45.144,5.445-40.834,0c1.561-1.969,1.992-7.8,1.906-14.451-.027-2.019-.1-4.111-.2-6.193-.5-9.982-1.7-19.736-1.7-19.736s39.473-18.6,34.936-3.857c-1.815,5.957-1.221,14.324.159,22.177.4,2.291.871,4.537,1.361,6.67A156.367,156.367,0,0,0,568.425,489.963Z" transform="translate(-324.049 -318.822)"/><path class="g" d="M568.425,530.242s-45.144,5.444-40.834,0c1.561-1.969,1.992-7.8,1.906-14.451,6.883-2.94,15.639-.749,15.639-.749,9.219-1.838,15.131-1.479,18.911-.19A156.381,156.381,0,0,0,568.425,530.242Z" transform="translate(-324.049 -359.101)"/><path class="c" d="M404.546,610.883V610.5l79.681-.866,48.547-.454h.136l-.05.672.068-.672h.086V609.1l.622-6.1.236-2.309.073-.721.064-.6,2.8-9.351,2.8-9.337,2.359-7.863,3.6-12.014s-2.042-4.764-3.176-6.125-2.269-10.662-2.269-10.662-9.682-9.224-13.915-10.286c-1.774-.454-5.277-1.057-9-1.815-1.393-.281-2.822-.581-4.2-.908-.776-.177-1.538-.363-2.269-.549a39.88,39.88,0,0,1-4.2-1.3,9.387,9.387,0,0,1-2.042-1.039c-3.335-2.446-11.692-2.722-12.014-2.722h0a.183.183,0,0,1,0-.032v-.041a4.652,4.652,0,0,0,0-.572,3.636,3.636,0,0,0-.041-.635.573.573,0,0,0-.032-.227c-.023-.163-.05-.336-.091-.517a2.262,2.262,0,0,0-.055-.241,7.81,7.81,0,0,0-.567-1.583c-.032-.073-.073-.15-.109-.222a8.269,8.269,0,0,0-.771-1.193c-.059-.077-.122-.159-.19-.236a8.887,8.887,0,0,0-1.234-1.2c-.122-.1-.25-.2-.381-.286a2.106,2.106,0,0,0-.231-.163l-.4-.263-.377-.218c-.331-.182-.681-.358-1.062-.526-.118-.054-.245-.1-.372-.154s-.327-.127-.495-.191h-.027l-.34-.136c-.259-.086-.522-.163-.8-.24l-.422-.109-.454-.1-.454-.1c-.454-.091-.939-.172-1.447-.236l-.517-.064-.531-.054-.549-.045-.78-.045-.907-.032a56.576,56.576,0,0,0-11.911,1.267,32.783,32.783,0,0,0-8.28-.763h-.395l-.454.027h-.29l-.585.054a4.36,4.36,0,0,0-.59.068c-.2.027-.4.05-.594.082l-.3.05c-.295.05-.594.1-.907.168q-.15.027-.3.068c-.395.086-.789.19-1.18.309-.2.054-.39.118-.585.186-.1.027-.2.063-.29.1l-.29.1-.286.113-.34.136c-.172.073-.34.15-.508.231-.1.041-.191.086-.281.136s-.186.091-.272.141a12.592,12.592,0,0,0-2.818,1.987l-.231.222-.227.231c-.077.077-.15.159-.222.24a10.826,10.826,0,0,0-.826,1.021c-.073.1-.141.19-.209.29a12.105,12.105,0,0,0-.78,1.325c-.059.109-.113.222-.168.331a14.838,14.838,0,0,0-.907,2.382q-.127.454-.231.907s-9.605,4.238-17.572,7.3c-2.119.817-4.115,1.556-5.785,2.114-.485.163-.939.313-1.361.454a12.113,12.113,0,0,1-2.836.653,8.927,8.927,0,0,0-1.361.127c-3.661.594-9.936,3.176-10.621,5.767a1.674,1.674,0,0,0-.045.635v.05c.454,3.176-2.722,2.722-2.722,2.722s-1.134,8.394-2.722,10.662c-1.148,1.633-1.933,5.277-2.033,8.026h0a8.9,8.9,0,0,0,.2,2.554v.064c.181.608-.254,2.269-.994,4.4-.8,2.337-1.974,5.24-3.1,7.981a92.941,92.941,0,0,0-3.394,8.72c-.041.368-.159,1.025-.322,1.874-.662,3.457-2.132,10.041-2.858,12.7-.54,1.987-1.325,4.709-1.865,6.579a.639.639,0,0,1-.045.159l20.34-.2v.381h.064Z" transform="translate(-245.859 -360.175)"/><path class="g" d="M445.44,607.57s25.862,13.384,35.163,11.8Z" transform="translate(-279.33 -410.34)"/><path class="g" d="M561.44,595.57s25.181,8.167,33.575,9.3S561.44,595.57,561.44,595.57Z" transform="translate(-342.699 -403.785)"/><path class="g" d="M564.438,526.791c-13.158,2.423-37.93,1.9-48.638,1.534,3.925-14.065,23.062-9.283,23.062-9.283C562.55,514.314,564.365,524.123,564.438,526.791Z" transform="translate(-317.767 -361.285)"/><path class="c" d="M564.438,524.791c-13.158,2.423-37.93,1.9-48.638,1.534,3.925-14.065,23.062-9.283,23.062-9.283C562.55,512.314,564.365,522.123,564.438,524.791Z" transform="translate(-317.767 -360.193)"/><path class="i" d="M776.94,671.834s15.5-2.382,15.8,4.424-7.9,11.561-7.9,11.561Z" transform="translate(-460.424 -445.226)"/><path class="g" d="M563,467.9a21.343,21.343,0,0,1-2.042.789c-4.891,1.688-9.823,3.389-14.973,4.006s-10.553.073-15.045-2.5a13.05,13.05,0,0,1-1.361-.885c-.5-9.982-1.7-19.736-1.7-19.736s39.473-18.6,34.936-3.857C561.01,451.683,561.623,460.05,563,467.9Z" transform="translate(-324.366 -318.822)"/><path class="d" d="M528.157,357.745a4.3,4.3,0,0,1-3.775-.794l.944,1.311a3.843,3.843,0,0,1-3.076-1.021,15.469,15.469,0,0,0,.145,3.516,6.588,6.588,0,0,1-4.337-1.361,2.006,2.006,0,0,0,1.2,1.956,6.506,6.506,0,0,0-7.078,4.859l2.368.218a8.38,8.38,0,0,0-4.737,2.89,3.67,3.67,0,0,0-.962,3.176c.318,1.107,1.851,1.815,2.686,1.025a12.676,12.676,0,0,0-2.768,10.34,6.566,6.566,0,0,1,.209,2.387,20.244,20.244,0,0,1-.858,2.128,6.723,6.723,0,0,0,.381,4.083l2.128,7c.771,2.527,1.538,5.059,2.545,7.5a37.233,37.233,0,0,1,1.815,4.769c.572,2.2.594,4.6,1.815,6.52a9.043,9.043,0,0,0,3.258,2.872c4.487,2.568,9.909,3.112,15.045,2.5s10.063-2.318,14.95-4.006a14.066,14.066,0,0,0,3.1-1.361c3.38-2.214,4.133-6.742,4.764-10.73a60.926,60.926,0,0,1,3.307-13.067c.989-2.491,2.269-5.018,2.051-7.686-.277-3.543-3.081-6.415-3.775-9.9a8.621,8.621,0,0,1,.032-3.525,8.017,8.017,0,0,0,.358-2.132c-.077-1.461-1.275-2.586-2.4-3.525q-3.661-3.058-7.559-5.78c-.132-.907,1.1-1.3,1.661-2.014.789-1.012-.027-2.618-1.225-3.09a6.27,6.27,0,0,0-3.789.15,2.99,2.99,0,0,0-5.24-2.318,4.628,4.628,0,0,0-3.82-2.759c-3.008-.236-3.067,2.064-4.991,3.33s-3.512-.4-4.991-1.62A4.211,4.211,0,0,0,528.157,357.745Z" transform="translate(-313.463 -270.645)"/><path class="c" d="M749.1,650.565s-.4.962-1.148,2.355a31.315,31.315,0,0,1-4.083,5.975l-.123.132h-.735l-26.2.241h-.626l-.077-.091-5.082-6.03-1.915-2.273-.077-.1-.163-.191-.091-.109-.118-.141-3.725-4.419,1.361-5.671,2.318-9.555.059-.231.454-1.815.322-1.361,1.08-4.437,3.7-15.267,6.579,3.4,6.937,12.25,3.725,6.579h2.042c.386,0,1.271.744,2.16,1.6.318.3.635.626.907.907.808.835,1.447,1.552,1.447,1.552s3.307.073,4.2,2.677a3.159,3.159,0,0,1,.114.386,18.3,18.3,0,0,0,1.148,2.976c.585,1.275,1.32,2.722,2.064,4.17,1.384,2.654,2.791,5.181,3.308,6.1l.063.113Z" transform="translate(-421.092 -410.346)"/><path class="g" d="M559.367,650.812l-.045.649v.045l-.077,1.044-.6,8.4-.731,10.118-.209,2.849-.454,6.1v.077l-48.547.454-79.667.862v.381h-.064v-.508l.2-6.515.39-12.731.336-10.794.032-1.075a4.778,4.778,0,0,1,5.181-4.614c2.142.181,4.923.4,8.248.64l1.361.1c19.206,1.334,54.7,3.058,90.516.907.753-.041,1.511-.086,2.269-.141,5.553-.349,11.1-.8,16.6-1.361a4.778,4.778,0,0,1,5.263,5.1Z" transform="translate(-270.333 -431.078)"/><path class="d" d="M429.08,683.989v-.381l79.681-.867,48.547-.454h.136v-.077l.454-6.1.2-2.722.744-10.258.585-8.121v-.2a4.818,4.818,0,0,0-.05-1.121.141.141,0,0,0,0-.045,4.715,4.715,0,0,0-.907-2.105,4.782,4.782,0,0,0-4.274-1.815c-5.495.563-11.043,1.012-16.6,1.361-.758.054-1.516.1-2.269.141-35.816,2.128-71.31.4-90.516-.908l-1.361-.1c-3.326-.236-6.107-.454-8.249-.64a4.782,4.782,0,0,0-5.1,3.87,4.994,4.994,0,0,0-.082.744l-.309,10.054-.422,12.736-.2,6.515v.508Z" transform="translate(-270.393 -433.28)"/><path class="g" d="M559.579,660.3l-.558,6.955-.83,10.367-.209,2.6-.454,5.812-.027.29v.077h0l-.068.671.05-.671h-.131l-48.547.454-79.695.862v-.127l.222-6.515.454-12.731.29-8.462a2.886,2.886,0,0,1,1.388-2.382,2.835,2.835,0,0,1,1.715-.408c.953.077,2.123.168,3.489.268,2.219.163,4.955.354,8.14.554,5.9.372,13.3.771,21.778,1.1,23.593.907,55.444,1.211,85.7-1.438,1.361-.118,2.768-.25,4.142-.381a2.839,2.839,0,0,1,1.579.3,2.34,2.34,0,0,1,.39.245,2.786,2.786,0,0,1,.907,1.116,1.618,1.618,0,0,1,.113.277A2.848,2.848,0,0,1,559.579,660.3Z" transform="translate(-270.409 -437.386)"/><path class="g" d="M351.672,677.87v1.447a2.781,2.781,0,0,1-1.588,2.514l-18.194.349a2.777,2.777,0,0,1-1.62-2.527v-1.361Z" transform="translate(-216.414 -448.744)"/><path class="d" d="M270.056,510.834l-23.706.454v-3.934l23.706-.454Z" transform="translate(-134.572 -276.894)"/><path class="g" d="M270.056,510.834l-23.706.454v-3.934l23.706-.454Z" transform="translate(-134.572 -276.894)"/><path class="d" d="M272.056,510.834l-23.707.454v-3.934l23.707-.454Z" transform="translate(-135.665 -276.894)"/><g class="b" transform="translate(194.641 83.643)"><path d="M551.836,359.189a4.423,4.423,0,0,1-.858-1.969,4.305,4.305,0,0,0,.19,2.087A4.093,4.093,0,0,0,551.836,359.189Z" transform="translate(-531.597 -357.22)"/><path d="M540.028,366.179a15.959,15.959,0,0,1-.168-1.679v1.683Z" transform="translate(-525.552 -361.197)"/><path d="M621.692,396.981a8.326,8.326,0,0,1,.163-1.2,8.165,8.165,0,0,0,.363-2.128,2.8,2.8,0,0,0-.073-.481c-.077.417-.2.835-.29,1.248a8.684,8.684,0,0,0-.163,2.564Z" transform="translate(-570.239 -376.859)"/><path d="M600.918,367.9l.495.358a8.945,8.945,0,0,0,1.166-1.007,1.665,1.665,0,0,0,.172-1.651,1.369,1.369,0,0,1-.172.29C602.021,366.607,600.787,367,600.918,367.9Z" transform="translate(-558.902 -361.798)"/><path d="M518.285,380.29a5.6,5.6,0,0,0-.395,1.034,8.241,8.241,0,0,1,2.269-.858Z" transform="translate(-513.55 -369.823)"/><path d="M531.518,368.738a6.72,6.72,0,0,1-.853-.558,1.929,1.929,0,0,0,.041.535A5.378,5.378,0,0,1,531.518,368.738Z" transform="translate(-520.527 -363.207)"/><path d="M563.675,428.33c-.186,2.2-1.211,4.319-2.042,6.406a60.905,60.905,0,0,0-3.307,13.071c-.631,3.988-1.361,8.516-4.764,10.726a13.61,13.61,0,0,1-3.1,1.361c-4.891,1.692-9.823,3.389-14.973,4.006s-10.553.077-15.045-2.491a9.076,9.076,0,0,1-3.258-2.872c-1.211-1.919-1.234-4.324-1.815-6.52a37.292,37.292,0,0,0-1.815-4.773c-1-2.441-1.774-4.991-2.541-7.5q-1.066-3.5-2.128-7a13.077,13.077,0,0,1-.517-2.155,8.13,8.13,0,0,0,.517,3.516q1.062,3.507,2.128,7c.767,2.527,1.538,5.059,2.541,7.5a37.289,37.289,0,0,1,1.815,4.773c.572,2.2.594,4.6,1.815,6.52a9.075,9.075,0,0,0,3.258,2.872c4.492,2.568,9.909,3.108,15.045,2.491s10.063-2.314,14.973-4.006a13.611,13.611,0,0,0,3.1-1.361c3.38-2.21,4.133-6.738,4.764-10.726a60.9,60.9,0,0,1,3.307-13.071c.989-2.486,2.269-5.014,2.051-7.686C563.684,428.384,563.675,428.357,563.675,428.33Z" transform="translate(-508.324 -396.066)"/><path d="M510.144,419.718v-.05a6.351,6.351,0,0,0-.209-2.382,12.09,12.09,0,0,1-.177-1.506,12.418,12.418,0,0,0,.177,2.867C510.007,419,510.089,419.36,510.144,419.718Z" transform="translate(-509.097 -389.211)"/><path d="M511.765,396.771a12.585,12.585,0,0,1,1.184-1.665c-.83.794-2.364.086-2.686-1.016a2.645,2.645,0,0,0,0,1.361A1.992,1.992,0,0,0,511.765,396.771Z" transform="translate(-509.335 -377.362)"/></g><path class="g" d="M762.67,656.57s1.438,5.218,0,9.755S762.67,656.57,762.67,656.57Z" transform="translate(-452.28 -437.108)"/><path class="g" d="M775.478,668.3s.6,6.624-.758,7.8S775.478,668.3,775.478,668.3Z" transform="translate(-458.963 -443.516)"/><line class="k" y1="0.454" x2="46.102" transform="translate(90.29 155.125)"/><line class="k" y1="0.449" x2="46.102" transform="translate(90.29 160.787)"/><line class="k" y1="0.454" x2="46.102" transform="translate(90.29 166.445)"/></g></svg>