<svg xmlns="http://www.w3.org/2000/svg" width="303.084" height="255.619" viewBox="0 0 303.084 255.619"><defs><style>.a{fill:tomato;}.b{fill:#3f3d56;}.c{fill:#f2f2f2;}.d{fill:none;stroke:#3f3d56;stroke-miterlimit:10;stroke-width:2px;}.e{fill:#2f2e41;}.f{fill:#9f616a;}.g{opacity:0.1;}.h{fill:#d0cde1;}</style></defs><g transform="translate(0 0)"><path class="a" d="M232.181,740.348c0,8.049-4.785,10.86-10.688,10.86q-.205,0-.41,0c-.273-.006-.544-.019-.812-.037-5.327-.377-9.466-3.332-9.466-10.818,0-7.747,9.9-17.523,10.644-18.246h0l.043-.042S232.181,732.3,232.181,740.348Z" transform="translate(-198.691 -496.785)"/><path class="b" d="M231.856,749.977l3.909-5.462-3.919,6.062-.01.627c-.273-.006-.544-.019-.812-.037l.421-8.053,0-.063.007-.012.04-.761-3.929-6.077,3.941,5.506.009.161.318-6.085-3.363-6.279,3.4,5.211L232.2,722.1v0l-.055,9.947L235.5,728.1l-3.362,4.8-.089,5.448,3.126-5.228-3.139,6.03-.05,3.029,4.539-7.277-4.556,8.334Z" transform="translate(-209.444 -496.785)"/><path class="c" d="M655.32,282.9c0,63.115-28.657,112.906-63.947,114.281-46.021,1.792-106.169-44.1-63.947-114.281,32.535-54.083,28.63-114.281,63.947-114.281S655.32,219.788,655.32,282.9Z" transform="translate(-392.693 -141.616)"/><rect class="a" width="91.179" height="79.181" transform="translate(134.323 174.842)"/><line class="d" x2="303.084" transform="translate(0 254.023)"/><path class="b" d="M720.068,93.235a8.73,8.73,0,0,0-3.5,16.726,7.727,7.727,0,0,1,.152-2l1.122-4.758a3.333,3.333,0,0,1-.281-1.38c0-1.294.748-2.26,1.683-2.26a1.168,1.168,0,0,1,1.177,1.309,18.887,18.887,0,0,1-.772,3.1,1.35,1.35,0,0,0,1.379,1.68c1.652,0,2.767-2.124,2.767-4.641,0-1.913-1.29-3.344-3.632-3.344a4.136,4.136,0,0,0-4.3,4.181,2.515,2.515,0,0,0,.577,1.711.427.427,0,0,1,.125.487c-.043.16-.136.546-.179.7a.3.3,0,0,1-.437.218,3.362,3.362,0,0,1-1.789-3.336c0-2.478,2.093-5.452,6.239-5.452a5.218,5.218,0,0,1,5.526,5c0,3.425-1.906,5.982-4.711,5.982a2.5,2.5,0,0,1-2.132-1.087s-.507,2.011-.616,2.4a7.257,7.257,0,0,1-.877,1.871,8.731,8.731,0,1,0,2.478-17.1Z" transform="translate(-519.91 -93.235)"/><path class="b" d="M943.323,266.281a7.629,7.629,0,0,1-2.167.6,3.786,3.786,0,0,0,1.66-2.089,7.5,7.5,0,0,1-2.4.916,3.772,3.772,0,0,0-6.527,2.58,3.7,3.7,0,0,0,.1.861,10.692,10.692,0,0,1-7.778-3.948,3.78,3.78,0,0,0,1.173,5.043,3.685,3.685,0,0,1-1.715-.472v.047a3.776,3.776,0,0,0,3.029,3.7,3.8,3.8,0,0,1-.994.132,3.564,3.564,0,0,1-.709-.07,3.779,3.779,0,0,0,3.527,2.623,7.581,7.581,0,0,1-5.588,1.563,10.546,10.546,0,0,0,5.775,1.707,10.671,10.671,0,0,0,10.744-10.748c0-.164,0-.327-.012-.487A7.68,7.68,0,0,0,943.323,266.281Z" transform="translate(-656.985 -203.15)"/><path class="b" d="M545.586,124.252H532.274a.827.827,0,0,0-.826.826V138.39a.827.827,0,0,0,.826.826h6.656v-5.924h-1.789V131.11h1.789V129.5A2.843,2.843,0,0,1,542,126.512c.826,0,1.715.062,1.921.09v2.019h-1.376c-.939,0-1.118.444-1.118,1.1v1.391h2.237l-.292,2.182h-1.945v5.923h4.162a.827.827,0,0,0,.826-.826V125.078a.827.827,0,0,0-.826-.826Z" transform="translate(-404.465 -113.14)"/><path class="b" d="M556.61,276.694a3.127,3.127,0,0,1,3.118,3.118v6.235a3.127,3.127,0,0,1-3.118,3.118h-6.235a3.127,3.127,0,0,1-3.117-3.117v-6.235a3.127,3.127,0,0,1,3.118-3.118h6.235m0-1.247h-6.235a4.377,4.377,0,0,0-4.365,4.365v6.235a4.377,4.377,0,0,0,4.365,4.365h6.235a4.377,4.377,0,0,0,4.365-4.365v-6.235a4.377,4.377,0,0,0-4.365-4.364Z" transform="translate(-413.81 -210.17)"/><path class="b" d="M564.246,284.279a.933.933,0,1,1,.662-.273A.935.935,0,0,1,564.246,284.279Zm-4.053.624A2.494,2.494,0,1,1,557.7,287.4a2.494,2.494,0,0,1,2.494-2.494m0-1.247a3.741,3.741,0,1,0,3.741,3.741,3.741,3.741,0,0,0-3.741-3.741Z" transform="translate(-420.511 -214.638)"/><path class="b" d="M854.917,103.745H842.431a1.22,1.22,0,0,0-1.278,1.165v12.513a1.316,1.316,0,0,0,1.278,1.282h12.482a1.25,1.25,0,0,0,1.2-1.282V104.91a1.147,1.147,0,0,0-1.2-1.165Zm-9.127,12.47h-2.143v-6.664h2.143Zm-1-7.677h-.016a1.165,1.165,0,1,1,.016,0Zm8.83,7.677H851.48v-3.644c0-.873-.312-1.469-1.087-1.469a1.173,1.173,0,0,0-1.1.791,1.443,1.443,0,0,0-.074.526v3.8h-2.143v-6.664h2.143v.927a2.17,2.17,0,0,1,1.933-1.083c1.407,0,2.471.927,2.471,2.927Z" transform="translate(-603.219 -99.979)"/><path class="e" d="M703.836,361.354s15.171.412,17.676,1.324,3.626,7.43,3.626,7.43l-11.779,3.7-8.81-.5-6.63.469,3.7-9.7Z" transform="translate(-511.297 -265.302)"/><path class="f" d="M713.584,347.458s1,3.855-1.217,6.585S721.89,366.5,721.89,366.5l6.192-1.064s-1.365-11.845.468-14.845S713.584,347.458,713.584,347.458Z" transform="translate(-520.392 -256.384)"/><path class="g" d="M713.584,347.458s1,3.855-1.217,6.585S721.89,366.5,721.89,366.5l6.192-1.064s-1.365-11.845.468-14.845S713.584,347.458,713.584,347.458Z" transform="translate(-520.392 -256.384)"/><path class="f" d="M629.755,568.843l-13.663,18.119,9.324,5.444,12.833-21Z" transform="translate(-395.379 -365.057)"/><path class="e" d="M793.07,705.031s-5.031-5.846-4.807-4.542-3.58,12.359-.041,13.429,33.89,3.906,34.308.479-9.055-5.826-9.055-5.826-5.627-5.408-6.875-4.858S793.07,705.031,793.07,705.031Z" transform="translate(-568.279 -482.821)"/><path class="f" d="M645.673,614.636l10.913,18.593,8.24-4.771-11-15.222Z" transform="translate(-414.363 -393.547)"/><path class="e" d="M840.009,584.6l-3.239,4.583s-15.44,21.444-13.8,23.176,8.469,8.275,11.942,7.007,15.812-23.186,15.812-23.186l-3.218-12.869Z" transform="translate(-591.472 -407.744)"/><path class="e" d="M683.959,530.033a19.615,19.615,0,0,0,12.222,8.637c8.764,2.185,17.92,6.651,18.246,6.594s1.248-.55,1.472.754,2.628,3.575,2.628,3.575,9.681,32.9,13.378,32.933,11.295-2.612,11.453-3.646-11.321-34.629-11.433-35.281l-1.345-7.822s15.181,2.424,16.6,2.852,14.009,7.323,14.009,7.323,12.838-9.253.83-18.6-32.648-16.2-32.648-16.2l-7.4-2.083-6.453-.385-.95-3.644-15.284.882-15.95,6.768Z" transform="translate(-501.934 -357.515)"/><circle class="f" cx="11.905" cy="11.905" r="11.905" transform="translate(190.291 74.938)"/><path class="h" d="M698.178,361.915l1.432-.246s2.586,9.957,10.586,11.6c0,0,3.948-4.729,3.779-5.527s3.126-5.055,4.878-2.672-.428,44.366,1.044,45.119,4.629,1.553,2.088,4.339-12.634,6.534-14.87,5.24-6.8-12.252-8.779-15.939S693.2,387.6,693.2,387.6s-4.038-13.734-1.553-16.846S698.178,361.915,698.178,361.915Z" transform="translate(-506.753 -265.504)"/><path class="e" d="M691.441,411a67.912,67.912,0,0,1-1.364,8.694c-.584,2.332-1.264,3.739-2.039,3.679-1.98-.148-2.879,2.755-3.343,6.1-.5,3.551-.5,7.6-.768,9.034-.36,1.892-2.663,3.335-7.266,2.911a32.481,32.481,0,0,1-8.006-1.964c-6.214-2.259-6.031-20.583-4.991-34.18.636-8.334,1.592-14.9,1.592-14.9a74,74,0,0,1-2.491-9.49,12.612,12.612,0,0,1-.18-2.132c.092-3.371,6.247-12.481,9.966-18.156s8.8-1.512,8.8-1.512l-1.768,5.335s2.739,4.227,2.759,8.25,6.558,6.926,8.906,8.874C692.725,382.777,692.688,399.113,691.441,411Z" transform="translate(-488.621 -262.907)"/><path class="e" d="M756.231,367.054s.429.507,2.393.26c2.356-.3,5.6.518,6.348,2.768,1.38,4.125,5.271,20.9,5.271,20.9s1.619,19.183,2.348,23.42.367,7.99,1.085,10.215-7.089-4.15-9.966-3.32-4.726-9.925-4.364-13.678.667-7.832-.331-11.687.771-14.058.705-16.4S753.375,371.312,756.231,367.054Z" transform="translate(-548.242 -268.96)"/><path class="f" d="M775.617,533.479s12.605,6.877,13.812,16.665-16.86-9.477-16.86-9.477Z" transform="translate(-559.205 -375.763)"/><path class="f" d="M801.164,512.1s3.863,19.469,9.879,18.435-3.361-19.555-3.361-19.555Z" transform="translate(-577.556 -361.322)"/><path class="e" d="M848.97,745.995s-3.081,3.549-3.845,3.01-2.521,6.809-.937,8.214,7.685,3.712,7.751,6.05,16.428,1.874,17.014-.576-2.052-8.036-3.906-9.059-8.708-10.445-8.708-10.445S850.971,743.973,848.97,745.995Z" transform="translate(-604.756 -510.345)"/><path class="g" d="M703.348,471.2c-2.923-2.064-11.085-2.575-18.332-3.051-3.179-.2-6.182-.4-8.49-.728-2.223-.308-4.223-2.34-6-5.367-2.691-4.587-4.867-11.465-6.542-18.1.636-8.334,1.592-14.9,1.592-14.9a73.979,73.979,0,0,1-2.491-9.49,5.08,5.08,0,0,1,1.608-1.448c7.686-3.3,15.024,29.169,15.956,34.264.016.084.028.164.04.232.452,2.623,5.335,4.867,9.71,5.755,2.7.548,5.2.584,6.359-.128,3.035-1.864,12.369,5.595,13.077,5.807S707.547,474.174,703.348,471.2Z" transform="translate(-488.943 -301.58)"/><path class="e" d="M660.85,412.54s-5.587,2.638-3.132,14.967,7.4,33.289,14.962,34.338,22.621.81,26.822,3.779,7.2-6.941,6.488-7.155-10.042-7.669-13.077-5.805-15.339-1.39-16.067-5.627S668.662,409.184,660.85,412.54Z" transform="translate(-485.099 -297.999)"/><path class="e" d="M779.946,396.457l6.14,14.246s.618-.308,1.336,1.917,1.054,4.181,2.312,5.642,6.855,22.31,7.023,23.288-7.73,4.349-9.495,1.632S779.946,396.457,779.946,396.457Z" transform="translate(-563.939 -287.829)"/><path class="e" d="M708.933,306.835c.456-.122.523-.728.539-1.2.082-2.528,1.6-5.121,4.023-5.857a6.764,6.764,0,0,1,2.851-.157,10.8,10.8,0,0,1,3.861,1.288,6.022,6.022,0,0,0,1.963.889c.472.072,2.516.666,2.986.749,1.033.184,1.994,1.109,2.986.764.949-.329,1.159-1.558,1.182-2.562.052-2.287-1.684-5.453-3.213-7.154a7.979,7.979,0,0,0-4.616-2.2,30.739,30.739,0,0,0-6.037-.367,19.184,19.184,0,0,0-8.009,1.443c-2.465,1.183-4.536,3.537-4.654,6.269-.025.569.034,1.14-.014,1.708a25.132,25.132,0,0,1-1.2,3.981,7.285,7.285,0,0,0,1.017,5.822c.915,1.346,2.353,2.564,2.3,4.191l1.984-2.055a1.629,1.629,0,0,0,.484-1.99l-.7-2.739a2.47,2.47,0,0,1-.061-1.524C707.359,304.277,708.173,307.038,708.933,306.835Z" transform="translate(-513.511 -220.158)"/><path class="c" d="M289.008,407.678c0,37.956-22.564,51.209-50.4,51.209s-50.4-13.253-50.4-51.209,50.4-86.241,50.4-86.241S289.008,369.723,289.008,407.678Z" transform="translate(-184.191 -239.685)"/><path class="b" d="M110.491,359.846l.516-31.765,21.481-39.3-21.4,34.315.232-14.283,14.8-28.432-14.743,24.652h0l.417-25.689,15.853-22.635-15.788,18.6.261-47.1-1.639,62.357.134-2.572L94.5,263.316l15.86,29.609-1.5,28.69-.045-.762L90.235,294.891l18.525,28.653-.188,3.588-.034.054.015.294-3.81,72.789h5.091l.611-37.6,18.479-28.583Z" transform="translate(-57.909 -146.45)"/></g></svg>