<svg xmlns="http://www.w3.org/2000/svg" width="184.081" height="43.995" viewBox="0 0 184.081 43.995"><g transform="translate(-50 -339.048)"><path d="M65.6,427.3H59.431L50,395.222h5.639l7,27.949,7.048-27.949h5.347l7.1,28,7.048-28h5.346L85.144,427.3H79.02l-5.1-19.25-1.6-7.388h-.048l-1.6,7.388Z" transform="translate(0 -44.748)"/><path d="M322.926,422.83V427.3H299.011V395.222h23.234v4.472H304.212v9.236h14.1V413.3h-14.1v9.527h18.714Z" transform="translate(-198.361 -44.748)"/><path d="M463.042,414.471h-6.9V427.3h-5.154V395.222h13.076q5.2,0,8.216,2.551a8.772,8.772,0,0,1,3.012,7.073,9.171,9.171,0,0,1-1.774,5.76,9.571,9.571,0,0,1-5.03,3.281l8.7,13.417h-5.979Zm-6.9-4.327h7.484a7.28,7.28,0,0,0,4.715-1.288,5.82,5.82,0,0,0,0-7.923,7.28,7.28,0,0,0-4.715-1.288h-7.484Z" transform="translate(-319.425 -44.748)"/><path d="M616.635,427.3h-5.2V395.222h5.2Z" transform="translate(-447.235 -44.748)"/><path d="M692.026,394.433a13.74,13.74,0,0,1,5.273,4.91l-3.938,3.548a9.725,9.725,0,0,0-3.4-4.23,9.96,9.96,0,0,0-5.443-1.312,8.753,8.753,0,0,0-5.2,1.337,4.066,4.066,0,0,0-1.847,3.427,3.5,3.5,0,0,0,1.8,3.086,19.327,19.327,0,0,0,6.416,1.969,28.7,28.7,0,0,1,6.879,1.969,8.685,8.685,0,0,1,3.718,2.965,7.847,7.847,0,0,1,1.167,4.4,8.037,8.037,0,0,1-1.6,4.959,10.093,10.093,0,0,1-4.5,3.281,18.16,18.16,0,0,1-6.685,1.143q-9.77,0-13.8-6.515l3.645-3.645A10.2,10.2,0,0,0,678.511,420a12.468,12.468,0,0,0,6.1,1.361,10.474,10.474,0,0,0,5.419-1.191A3.744,3.744,0,0,0,692,416.794a3.2,3.2,0,0,0-1.774-2.82,20.246,20.246,0,0,0-6.2-1.9,30.515,30.515,0,0,1-7.049-2.041,8.9,8.9,0,0,1-3.815-3.013,7.737,7.737,0,0,1-1.191-4.375,8.681,8.681,0,0,1,1.507-4.959,10.292,10.292,0,0,1,4.349-3.548,15.709,15.709,0,0,1,6.636-1.312A16.44,16.44,0,0,1,692.026,394.433Z" transform="translate(-494.572 -42.842)"/><path d="M861.335,422.83V427.3H837.418V395.222h23.236v4.472H842.62v9.236h14.1V413.3h-14.1v9.527h18.715Z" transform="translate(-627.254 -44.748)"/><path d="M599.486,349.11l5.031-10.062,5.031,10.062" transform="translate(-437.718 0)"/></g></svg>