<svg xmlns="http://www.w3.org/2000/svg" width="276" height="65.963" viewBox="0 0 276 65.963"><defs><style>.a{fill:tomato;}</style></defs><g transform="translate(-50 -339.048)"><path class="a" d="M73.4,443.325H64.14L50,395.222h8.455l10.5,41.9,10.568-41.9h8.017L98.175,437.2l10.568-41.979h8.016l-14.066,48.1H93.51l-7.653-28.862-2.405-11.078H83.38l-2.405,11.078Z" transform="translate(0 -39.042)"/><path class="a" d="M334.868,436.617v6.708H299.011v-48.1h34.836v6.705H306.809v13.848h21.137v6.558H306.809v14.284h28.059Z" transform="translate(-173.07 -39.043)"/><path class="a" d="M469.062,424.083H458.715v19.242h-7.728v-48.1h19.605q7.8,0,12.319,3.826t4.517,10.6a13.75,13.75,0,0,1-2.66,8.636,14.351,14.351,0,0,1-7.541,4.92l13.045,20.117h-8.965ZM458.715,417.6h11.221q4.737,0,7.07-1.93t2.334-5.94q0-4.008-2.334-5.94t-7.07-1.93H458.715Z" transform="translate(-278.697 -39.043)"/><path class="a" d="M619.232,443.325h-7.8v-48.1h7.8Z" transform="translate(-390.211 -39.043)"/><path class="a" d="M702.6,395.234A20.6,20.6,0,0,1,710.5,402.6l-5.9,5.32a14.581,14.581,0,0,0-5.1-6.342,14.933,14.933,0,0,0-8.161-1.968q-5.031,0-7.8,2a6.1,6.1,0,0,0-2.77,5.138,5.248,5.248,0,0,0,2.7,4.628q2.7,1.715,9.62,2.952a43.025,43.025,0,0,1,10.314,2.952,13.023,13.023,0,0,1,5.575,4.445,11.765,11.765,0,0,1,1.75,6.6,12.05,12.05,0,0,1-2.4,7.435,15.132,15.132,0,0,1-6.741,4.92,27.228,27.228,0,0,1-10.024,1.714q-14.648,0-20.7-9.769l5.465-5.465a15.285,15.285,0,0,0,6.011,6.414,18.693,18.693,0,0,0,9.149,2.04,15.7,15.7,0,0,0,8.126-1.785,5.614,5.614,0,0,0,2.951-5.065,4.8,4.8,0,0,0-2.66-4.229q-2.66-1.6-9.291-2.842a45.753,45.753,0,0,1-10.569-3.06,13.346,13.346,0,0,1-5.721-4.518,11.6,11.6,0,0,1-1.785-6.56,13.016,13.016,0,0,1,2.26-7.435,15.431,15.431,0,0,1,6.521-5.32,23.553,23.553,0,0,1,9.949-1.968A24.649,24.649,0,0,1,702.6,395.234Z" transform="translate(-431.513 -37.379)"/><path class="a" d="M873.277,436.617v6.708H837.418v-48.1h34.839v6.705h-27.04v13.848h21.136v6.558H845.217v14.284h28.06Z" transform="translate(-547.277 -39.043)"/><path class="a" d="M599.486,354.134l7.543-15.086,7.543,15.086" transform="translate(-381.908 0)"/></g></svg>